<?xml version="1.0" standalone="no"?>
<!DOCTYPE svg PUBLIC "-//W3C//DTD SVG 20010904//EN"
 "http://www.w3.org/TR/2001/REC-SVG-20010904/DTD/svg10.dtd">
<svg version="1.0" xmlns="http://www.w3.org/2000/svg"
 width="1024.000000pt" height="1024.000000pt" viewBox="0 0 1024.000000 1024.000000"
 preserveAspectRatio="xMidYMid meet">

<g transform="translate(0.000000,1024.000000) scale(0.100000,-0.100000)"
fill="#000000" stroke="none">
<path d="M2881 4812 c-24 -35 -16 -50 24 -41 l30 7 -33 1 -33 1 21 30 c12 17
19 30 16 30 -2 0 -14 -13 -25 -28z"/>
<path d="M2846 4763 c-8 -8 21 -33 38 -33 9 0 16 3 16 8 0 9 -47 31 -54 25z"/>
<path d="M2900 4304 c58 -58 141 -138 184 -176 l79 -71 126 7 c193 9 267 21
275 41 4 11 -2 15 -22 16 l-27 1 25 8 25 8 -26 1 c-14 1 -38 12 -53 26 -15 14
-31 25 -37 25 -5 0 -9 6 -9 13 0 14 -56 67 -71 67 -5 0 -9 6 -9 14 0 8 -9 21
-21 29 -15 11 -17 16 -7 20 7 3 -5 4 -27 2 -57 -5 -187 12 -353 46 -78 16
-145 29 -149 29 -4 0 40 -48 97 -106z"/>
<path d="M3528 4153 c6 -2 18 -2 25 0 6 3 1 5 -13 5 -14 0 -19 -2 -12 -5z"/>
<path d="M3596 4103 c-6 -14 -5 -15 5 -6 7 7 10 15 7 18 -3 3 -9 -2 -12 -12z"/>
<path d="M3815 3830 c-11 -4 -31 -6 -44 -3 -13 3 -21 2 -18 -3 3 -5 -17 -10
-44 -11 -43 -1 -125 -15 -168 -29 -9 -3 9 -19 45 -40 32 -20 78 -49 102 -65
24 -16 49 -26 55 -23 7 4 9 4 5 -1 -5 -5 4 -16 20 -25 79 -48 124 -70 134 -64
6 4 8 2 5 -3 -4 -6 11 -20 33 -32 49 -25 51 -26 43 -3 -3 9 -3 14 1 10 4 -3 9
-14 10 -24 2 -16 86 -72 86 -57 0 4 11 -4 25 -17 14 -13 28 -20 32 -17 3 4 0
7 -8 7 -11 0 -11 2 1 10 8 5 20 10 25 10 6 0 5 -4 -2 -8 -19 -12 -3 -26 70
-67 58 -31 67 -34 58 -16 -6 11 -20 25 -30 31 -14 7 -18 17 -15 39 4 26 0 31
-35 47 -22 11 -41 26 -42 34 0 10 -2 11 -6 3 -2 -7 -11 -13 -19 -13 -7 0 -11
6 -8 14 5 14 -267 296 -286 296 -5 0 -7 7 -4 15 7 17 7 17 -21 5z m18 -37 c-7
-2 -21 -2 -30 0 -10 3 -4 5 12 5 17 0 24 -2 18 -5z m4 -19 c-3 -3 -12 -4 -19
-1 -8 3 -5 6 6 6 11 1 17 -2 13 -5z m0 -109 c0 -8 -4 -12 -9 -9 -5 3 -6 10 -3
15 9 13 12 11 12 -6z m140 -87 c-3 -8 -6 -5 -6 6 -1 11 2 17 5 13 3 -3 4 -12
1 -19z m53 -68 c-13 -8 -12 -10 4 -10 11 0 17 -3 13 -6 -3 -4 -13 -4 -22 0
-18 6 -11 26 8 26 7 0 6 -4 -3 -10z m191 -78 c-11 -4 -11 -6 0 -13 11 -7 11
-9 1 -9 -7 0 -10 -4 -7 -10 3 -5 2 -10 -4 -10 -16 0 -22 18 -9 23 12 5 -17 11
-35 8 -5 -1 -6 2 -4 6 3 5 20 8 39 9 18 1 27 -1 19 -4z"/>
<path d="M4300 3350 c0 -4 7 -13 15 -20 13 -11 14 -10 9 4 -3 9 -1 16 5 16 6
0 11 -9 11 -20 0 -11 4 -20 10 -20 5 0 7 7 4 15 -4 8 -1 15 5 15 6 0 11 -6 11
-14 0 -8 6 -16 13 -19 8 -3 14 1 14 9 0 7 -7 16 -14 18 -8 3 -12 9 -9 14 2 4
-13 8 -35 8 -21 1 -39 -2 -39 -6z"/>
<path d="M4530 3230 c8 -5 20 -10 25 -10 6 0 3 5 -5 10 -8 5 -19 10 -25 10 -5
0 -3 -5 5 -10z"/>
<path d="M3659 2408 c-6 -20 -3 -45 7 -45 9 0 10 5 4 17 -5 10 -6 20 -3 24 3
3 3 6 0 6 -4 0 -7 -1 -8 -2z"/>
<path d="M3610 2386 c0 -2 7 -7 16 -10 8 -3 12 -2 9 4 -6 10 -25 14 -25 6z"/>
<path d="M3625 2351 c6 -11 4 -13 -8 -8 -23 9 -21 0 2 -13 15 -7 19 -7 17 5
-1 8 -6 18 -11 22 -4 5 -5 2 0 -6z"/>
<path d="M3655 2341 c-3 -5 -2 -12 3 -15 5 -3 9 1 9 9 0 17 -3 19 -12 6z"/>
<path d="M3574 2302 c0 -10 6 -19 13 -19 8 0 9 6 2 19 -5 10 -11 18 -12 18 -2
0 -3 -8 -3 -18z"/>
<path d="M3530 2306 c0 -2 7 -7 16 -10 8 -3 12 -2 9 4 -6 10 -25 14 -25 6z"/>
<path d="M3692 2294 c4 -4 3 -15 -3 -25 -13 -24 -8 -24 13 0 15 18 15 20 0 26
-9 3 -13 3 -10 -1z"/>
<path d="M3545 2271 c6 -11 4 -13 -8 -8 -23 9 -21 0 2 -13 15 -7 19 -7 17 5
-1 8 -6 18 -11 22 -4 5 -5 2 0 -6z"/>
<path d="M3575 2261 c-3 -5 -2 -12 3 -15 5 -3 9 1 9 9 0 17 -3 19 -12 6z"/>
<path d="M3606 2232 c-3 -5 1 -9 9 -9 8 0 12 4 9 9 -3 4 -7 8 -9 8 -2 0 -6 -4
-9 -8z"/>
<path d="M3489 2193 c-13 -16 -12 -17 4 -4 16 13 21 21 13 21 -2 0 -10 -8 -17
-17z"/>
<path d="M3610 2050 c6 -11 13 -20 16 -20 2 0 0 9 -6 20 -6 11 -13 20 -16 20
-2 0 0 -9 6 -20z"/>
<path d="M3611 2007 c-8 -10 -7 -14 2 -14 8 0 14 6 14 14 0 7 -1 13 -2 13 -2
0 -8 -6 -14 -13z"/>
<path d="M3605 1951 c-3 -5 -2 -12 3 -15 5 -3 9 1 9 9 0 17 -3 19 -12 6z"/>
<path d="M3740 1881 c0 -10 19 -25 25 -20 1 2 -3 10 -11 17 -8 7 -14 8 -14 3z"/>
<path d="M3530 1875 c0 -2 6 -8 13 -14 10 -8 14 -7 14 2 0 8 -6 14 -14 14 -7
0 -13 -1 -13 -2z"/>
<path d="M3686 1858 c3 -5 10 -6 15 -3 13 9 11 12 -6 12 -8 0 -12 -4 -9 -9z"/>
</g>
</svg>
