<?xml version="1.0" standalone="no"?>
<!DOCTYPE svg PUBLIC "-//W3C//DTD SVG 20010904//EN"
 "http://www.w3.org/TR/2001/REC-SVG-20010904/DTD/svg10.dtd">
<svg version="1.0" xmlns="http://www.w3.org/2000/svg"
 width="276.000000pt" height="110.000000pt" viewBox="0 0 276.000000 110.000000"
 preserveAspectRatio="xMidYMid meet">

<g transform="translate(0.000000,110.000000) scale(0.100000,-0.100000)"
fill="#000000" stroke="none">
<path d="M380 456 c0 -12 -9 -16 -35 -16 -37 0 -44 -10 -20 -30 23 -19 18 -32
-25 -68 -37 -31 -44 -33 -127 -35 -71 -2 -88 -5 -91 -18 -9 -47 135 -52 222
-7 25 13 42 -4 21 -22 -8 -7 -15 -20 -15 -29 0 -10 3 -12 8 -5 4 7 41 18 83
25 58 9 86 10 122 1 25 -7 60 -12 78 -12 18 0 64 -11 103 -24 232 -77 399
-109 536 -103 91 4 206 19 280 37 39 9 147 30 200 37 19 3 40 9 46 14 6 5 47
12 90 15 43 3 88 9 99 14 11 5 49 11 85 14 63 5 131 18 196 37 18 5 60 14 95
19 35 5 98 16 139 25 41 9 97 19 124 22 43 4 98 35 85 47 -2 2 -24 0 -49 -4
-97 -19 -127 -5 -94 46 l17 25 -29 -11 c-16 -6 -33 -14 -39 -18 -5 -5 -35 -16
-65 -26 -92 -29 -472 -12 -516 24 -9 9 -31 10 -64 6 -31 -4 -50 -3 -50 3 0 6
-24 8 -57 5 -118 -9 -742 -14 -841 -6 -57 4 -108 4 -115 0 -7 -4 20 -8 59 -8
38 0 74 -4 80 -9 5 -5 74 -11 153 -13 104 -2 146 -6 149 -15 2 -7 18 -13 36
-13 18 0 41 -7 52 -15 25 -19 112 -19 157 0 20 8 54 15 76 15 22 0 43 4 46 10
15 25 115 1 153 -36 7 -7 30 -23 52 -35 47 -27 53 -55 13 -63 -127 -25 -163
-27 -323 -23 -96 3 -215 13 -265 22 -49 9 -115 20 -146 24 -30 5 -65 13 -77
20 -11 6 -33 11 -47 11 -30 0 -125 28 -139 41 -6 5 -74 9 -152 9 -113 0 -149
-3 -176 -17 -64 -32 -66 -32 -77 -19 -14 17 33 86 59 86 10 0 22 5 25 10 3 6
18 10 32 10 15 0 23 3 19 7 -4 4 -33 8 -65 8 -33 0 -66 7 -75 14 -14 11 -16
11 -16 -3z"/>
</g>
</svg>
