<?xml version="1.0" standalone="no"?>
<!DOCTYPE svg PUBLIC "-//W3C//DTD SVG 20010904//EN"
 "http://www.w3.org/TR/2001/REC-SVG-20010904/DTD/svg10.dtd">
<svg version="1.0" xmlns="http://www.w3.org/2000/svg"
 width="1280.000000pt" height="1262.000000pt" viewBox="0 0 1280.000000 1262.000000"
 preserveAspectRatio="xMidYMid meet">

<g transform="translate(0.000000,1262.000000) scale(0.100000,-0.100000)"
fill="#000000" stroke="none">
<path d="M6120 12079 c-417 -25 -875 -104 -1335 -230 -777 -213 -1449 -554
-2115 -1072 -637 -497 -1197 -1175 -1572 -1907 -221 -431 -365 -842 -488
-1397 -101 -451 -145 -961 -121 -1397 25 -441 83 -789 212 -1263 233 -857 664
-1621 1314 -2333 134 -146 174 -186 335 -331 350 -315 772 -616 1170 -833 691
-378 1513 -627 2385 -723 232 -26 901 -25 1135 0 360 40 613 86 990 181 856
216 1582 578 2294 1144 776 617 1424 1502 1767 2417 165 442 282 931 346 1455
22 184 26 836 5 1025 -86 786 -313 1544 -642 2146 -123 225 -153 276 -283 469
-317 473 -676 877 -1077 1214 -398 335 -897 655 -1334 858 -921 428 -1999 636
-2986 577z m877 -353 c1018 -98 1938 -426 2758 -984 433 -295 861 -691 1193
-1106 897 -1116 1303 -2521 1137 -3931 -112 -947 -503 -1884 -1105 -2645 -506
-641 -1133 -1152 -1870 -1524 -506 -256 -992 -421 -1545 -525 -357 -67 -591
-91 -980 -98 -409 -8 -698 12 -1065 73 -1062 175 -2031 627 -2840 1325 -156
135 -447 427 -576 579 -461 543 -801 1147 -1017 1805 -326 993 -349 2053 -67
3048 210 742 568 1411 1079 2017 134 160 460 485 621 621 559 472 1167 817
1850 1051 514 176 1024 274 1625 312 124 8 656 -4 802 -18z"/>
<path d="M5635 10824 c-189 -17 -465 -58 -565 -84 -19 -5 -100 -25 -180 -45
-509 -126 -1071 -391 -1513 -713 -975 -711 -1623 -1764 -1811 -2947 -39 -243
-50 -400 -50 -705 0 -307 11 -460 50 -709 62 -392 171 -759 334 -1126 411
-929 1159 -1718 2065 -2180 479 -244 938 -387 1472 -460 793 -107 1605 2 2351
317 229 97 571 276 629 330 62 58 46 161 -30 199 -26 14 -51 19 -71 16 -17 -3
-85 -15 -151 -27 -762 -132 -1589 -7 -2280 345 -966 492 -1660 1358 -1920
2395 -90 359 -120 671 -103 1070 17 408 86 747 235 1145 62 164 216 477 306
622 503 807 1295 1391 2211 1633 316 83 572 114 941 114 293 0 426 -11 663
-55 134 -25 177 -19 213 33 29 41 31 107 4 144 -29 38 -165 117 -400 234 -521
259 -1019 399 -1610 454 -187 17 -604 17 -790 0z m636 -263 c33 -34 39 -71 10
-71 -10 0 -35 7 -55 15 -38 16 -49 48 -24 73 19 19 37 14 69 -17z m-511 14 c0
-3 -5 -11 -10 -18 -6 -7 -18 -23 -29 -36 -18 -24 -19 -25 -45 -8 -28 19 -31
47 -6 59 18 8 90 10 90 3z m-352 -47 c-5 -15 -82 -23 -107 -12 -12 6 -9 9 14
14 51 13 97 11 93 -2z m132 -28 c0 -22 -4 -40 -10 -40 -5 0 -10 -6 -10 -14 0
-25 -30 -47 -54 -40 -28 9 -36 22 -36 66 0 60 7 68 61 68 l49 0 0 -40z m1179
30 c112 -21 234 -109 309 -224 39 -60 39 -66 6 -66 -18 0 -46 19 -91 60 -90
82 -135 102 -240 106 -64 2 -94 -1 -117 -13 -51 -26 -146 -113 -146 -134 0
-25 -34 -25 -59 0 -36 36 -54 77 -47 106 7 26 9 27 50 21 39 -6 44 -5 50 16 3
13 6 37 6 55 0 28 5 33 43 47 86 33 158 41 236 26z m-710 -34 c38 -20 51 -56
50 -132 -1 -52 -5 -64 -17 -62 -8 2 -20 19 -26 38 -8 24 -20 38 -40 45 -25 9
-31 6 -52 -20 -30 -38 -30 -43 2 -47 35 -4 53 -31 38 -55 -8 -13 -27 -19 -72
-21 -37 -2 -65 -8 -72 -17 -7 -8 -22 -15 -35 -15 -12 0 -39 -16 -61 -36 l-39
-35 30 6 c127 24 154 27 179 21 27 -7 28 -9 23 -49 -2 -23 -10 -54 -16 -69 -9
-25 -16 -28 -56 -28 -34 0 -57 8 -95 33 -27 17 -55 42 -61 55 -8 14 -22 22
-40 22 -21 0 -28 6 -32 27 -9 48 7 68 80 98 79 33 123 61 123 78 0 15 36 80
75 134 33 47 64 54 114 29z m-859 -3 c-1 -5 -20 -25 -43 -45 -23 -21 -65 -58
-94 -83 -53 -47 -127 -160 -176 -268 -14 -32 -35 -71 -46 -86 -11 -15 -30 -52
-41 -82 -12 -30 -33 -66 -47 -80 -28 -30 -73 -121 -73 -149 0 -9 -17 -29 -37
-42 -21 -14 -62 -46 -91 -73 -65 -59 -114 -70 -156 -33 -23 19 -28 34 -33 86
-5 56 -3 68 27 129 36 73 89 131 165 181 131 87 140 40 16 -91 -70 -73 -101
-125 -101 -168 0 -17 4 -20 23 -15 12 3 27 6 34 6 31 0 163 153 163 190 0 8
14 42 30 75 16 33 30 65 30 71 0 6 7 17 16 25 9 7 44 70 79 139 81 161 169
275 222 289 137 34 133 33 133 24z m144 -35 c7 -13 16 -35 20 -49 5 -24 3 -27
-29 -33 -26 -5 -36 -13 -41 -31 -8 -32 -45 -55 -87 -55 -26 0 -39 -6 -51 -25
-9 -14 -25 -25 -36 -25 -29 0 -27 56 2 87 12 13 27 38 33 56 8 26 23 38 75 64
78 38 95 40 114 11z m356 -28 c0 -42 -29 -109 -52 -121 -22 -12 -21 -12 -37
19 -12 23 -8 42 11 42 6 0 5 -7 -3 -17 -13 -15 -12 -15 6 -4 16 10 20 21 17
49 -3 26 0 39 14 49 29 21 44 16 44 -17z m-800 -25 c-14 -16 -50 -21 -50 -6 0
11 18 19 44 20 15 1 16 -2 6 -14z m1886 -40 c74 -30 87 -40 106 -82 13 -30 25
-43 38 -43 30 0 24 -18 -7 -24 -91 -17 -110 -17 -127 -1 -9 9 -16 21 -16 26 0
5 -18 27 -40 48 -73 69 -47 113 46 76z m678 -5 c88 -28 92 -40 12 -40 -55 0
-69 -4 -95 -26 -19 -16 -47 -27 -73 -30 -24 -2 -53 -6 -65 -8 -39 -8 -29 34
19 81 37 36 49 41 89 42 26 1 76 -8 113 -19z m-2705 -25 c8 -17 17 -57 19 -90
3 -52 1 -63 -18 -80 -21 -19 -22 -19 -39 3 -9 12 -24 45 -34 72 -13 36 -26 54
-48 66 -36 18 -33 23 29 46 61 22 74 19 91 -17z m-224 -65 c18 -34 20 -83 4
-111 -5 -11 -35 -36 -65 -55 -65 -42 -69 -69 -16 -96 19 -9 36 -19 39 -22 10
-10 -52 -86 -75 -92 -38 -10 -98 2 -169 35 l-66 32 -27 -26 c-40 -38 -68 -33
-87 15 -9 22 -20 40 -25 40 -21 0 -2 67 27 97 18 18 204 107 210 101 3 -3 1
-16 -4 -30 -9 -24 1 -55 23 -70 23 -16 59 -7 87 21 25 26 29 37 29 88 l0 59
48 21 c26 12 48 21 49 22 1 1 9 -12 18 -29z m3140 10 c3 -5 -1 -10 -9 -10 -9
0 -16 5 -16 10 0 6 4 10 9 10 6 0 13 -4 16 -10z m-1071 -10 c49 -18 24 -74
-31 -68 -25 3 -28 7 -24 33 1 17 8 33 15 37 14 10 10 10 40 -2z m-1286 -46 c2
-28 11 -49 28 -64 30 -29 30 -43 -5 -104 -36 -65 -52 -75 -86 -52 -24 16 -26
22 -20 54 8 47 -6 32 -29 -30 -9 -25 -24 -49 -31 -52 -19 -7 -19 -26 -1 -26 8
0 24 -8 36 -18 l22 -18 -23 -47 c-25 -51 -58 -69 -89 -49 -13 8 -22 8 -35 -2
-16 -11 -16 -14 0 -52 38 -86 28 -126 -35 -145 -56 -17 -68 -4 -46 52 14 35
15 44 3 58 -36 44 -47 105 -22 137 8 10 15 25 15 32 0 8 8 26 19 40 10 15 35
72 56 127 44 114 95 175 161 193 66 18 79 13 82 -34z m258 12 c0 0 -2 -25 -4
-53 -3 -47 -6 -53 -27 -53 -35 0 -46 21 -39 74 7 46 7 47 38 40 17 -3 31 -7
32 -8z m1200 -45 c-3 -5 -23 -12 -43 -16 -21 -3 -49 -9 -63 -11 l-25 -5 24 20
c16 15 37 21 68 21 24 0 42 -4 39 -9z m-190 -31 c29 0 12 -16 -28 -27 -46 -13
-65 -5 -54 23 5 12 14 15 37 10 18 -3 38 -6 45 -6z m-392 -11 c13 -6 26 -19
29 -29 2 -10 22 -23 43 -30 22 -7 42 -16 47 -19 6 -6 -232 -107 -280 -119 -8
-2 -13 6 -13 20 0 36 14 50 41 43 36 -9 61 23 64 82 2 26 3 51 4 56 2 11 37 9
65 -4z m-1154 -35 c0 -9 -15 -43 -34 -77 -19 -34 -37 -76 -41 -94 -8 -42 -31
-61 -49 -42 -18 18 -28 77 -15 84 5 4 23 33 39 65 21 41 38 61 57 68 39 14 43
14 43 -4z m632 -64 c10 -65 -53 -82 -67 -18 -8 33 4 48 41 48 17 0 23 -7 26
-30z m-1828 -202 c4 -51 9 -111 11 -133 7 -61 25 -355 25 -396 0 -49 -24 -58
-60 -24 -21 20 -33 25 -54 19 -43 -10 -33 -43 39 -126 36 -42 65 -79 65 -81 0
-3 -16 -11 -35 -17 -33 -11 -38 -10 -59 13 -13 14 -41 36 -64 51 -22 14 -55
43 -73 66 -45 55 -59 41 -59 -59 0 -112 -19 -124 -110 -66 -30 19 -62 35 -71
35 -9 0 -67 52 -129 116 -84 87 -115 113 -121 103 -13 -21 -11 -48 8 -79 14
-24 14 -31 4 -44 -8 -9 -19 -16 -25 -16 -15 0 -135 54 -136 61 0 7 230 233
233 228 1 -2 15 -30 31 -63 30 -60 51 -84 145 -169 66 -59 86 -59 86 3 1 56
-3 70 -20 70 -9 0 -15 16 -18 43 -3 40 -4 39 -5 -11 l-2 -53 -32 3 c-31 3 -36
10 -88 112 l-54 109 29 24 c17 13 45 36 62 50 l33 25 20 -23 19 -24 1 41 c0
41 3 44 82 103 85 64 102 70 132 48 16 -12 24 -8 67 38 27 29 49 59 49 68 0
16 50 58 61 51 3 -2 9 -45 13 -96z m1723 80 c12 -13 23 -32 25 -43 2 -14 18
-25 49 -35 46 -15 79 -36 79 -49 0 -17 -81 -46 -150 -53 -175 -20 -180 -20
-180 -9 0 17 92 71 121 71 15 0 32 6 38 14 10 12 6 18 -23 31 -40 19 -47 46
-19 77 21 24 35 23 60 -4z m-1392 -88 c14 -23 31 -43 38 -45 48 -14 49 -15 37
-30 -8 -10 -31 -15 -66 -15 -30 0 -54 -4 -54 -10 0 -5 8 -10 18 -10 10 0 27
-7 38 -15 10 -8 27 -15 36 -15 10 0 25 -11 34 -25 20 -30 8 -50 -37 -60 -19
-4 -30 -14 -33 -28 -2 -12 -9 -46 -15 -75 -6 -30 -9 -58 -5 -63 3 -5 23 -9 45
-9 28 0 42 6 51 20 9 14 24 20 50 20 43 0 42 3 27 -73 -9 -43 -9 -60 0 -71 17
-20 48 -8 68 25 10 16 21 28 26 26 5 -1 16 -25 26 -52 15 -46 39 -66 33 -27
-13 84 -14 123 -2 137 22 27 35 16 53 -45 22 -76 39 -79 31 -7 -7 57 6 97 31
97 7 0 30 -19 49 -42 31 -37 35 -39 26 -15 -5 15 -17 41 -25 58 -21 41 -16 81
13 94 12 5 22 15 22 22 0 8 13 13 35 13 39 0 39 -1 26 33 -13 34 7 62 41 55
25 -5 25 -4 12 28 -17 40 -9 47 39 32 40 -12 47 -31 22 -64 -8 -10 -15 -33
-15 -51 0 -25 -5 -32 -22 -35 -18 -2 -24 -11 -29 -43 -3 -22 -11 -53 -18 -68
-6 -16 -11 -41 -11 -56 0 -22 -8 -32 -35 -47 -20 -10 -35 -26 -35 -36 0 -10
-9 -26 -20 -36 -21 -18 -24 -19 -64 -21 -20 -1 -24 -6 -22 -33 1 -30 -2 -33
-32 -38 -23 -4 -38 -14 -52 -38 -11 -18 -20 -35 -20 -37 0 -3 16 -5 36 -5 19
0 44 -5 55 -10 19 -11 25 -45 11 -66 -8 -12 -94 -40 -153 -49 -64 -10 -71 -20
-74 -126 -2 -92 -43 -288 -66 -315 -5 -7 -12 -35 -16 -63 -4 -38 -14 -61 -40
-91 -21 -24 -33 -47 -29 -56 8 -21 -36 -88 -109 -164 -34 -36 -69 -78 -78 -95
-11 -23 -31 -36 -79 -54 -132 -50 -255 -106 -307 -138 -144 -92 -259 -244
-335 -445 -23 -62 -112 -373 -123 -430 -1 -9 -14 -52 -29 -95 -42 -129 -100
-237 -166 -313 -54 -63 -73 -77 -153 -115 -51 -23 -101 -46 -112 -49 -12 -4
-26 -13 -32 -20 -6 -7 -13 -75 -15 -152 -5 -155 -21 -218 -81 -333 -48 -90
-153 -222 -206 -257 -57 -38 -61 -68 -19 -129 50 -72 67 -139 69 -264 1 -45 1
-45 20 -24 15 16 33 20 84 22 36 1 68 -2 70 -6 5 -8 -72 -146 -93 -167 -7 -7
-19 -3 -40 12 -41 31 -68 29 -76 -5 -4 -16 -22 -46 -41 -67 -18 -22 -31 -41
-30 -43 2 -2 28 -4 58 -6 36 -1 54 -6 53 -14 -1 -7 -2 -28 -2 -46 -2 -25 -10
-39 -33 -56 l-31 -23 -22 21 c-22 21 -56 20 -56 0 0 -5 -9 -9 -19 -9 -28 0
-61 -31 -85 -81 -13 -27 -32 -49 -50 -58 -36 -17 -42 -11 -75 86 -24 70 -24
71 -6 109 10 22 24 43 31 47 8 4 14 14 14 22 0 8 12 22 27 32 57 35 100 88
107 134 4 24 16 63 27 87 40 82 37 169 -7 222 -33 38 -41 38 -37 -2 5 -44 -10
-67 -34 -52 -25 15 -83 102 -83 125 0 16 8 19 45 19 41 0 45 2 45 24 0 15 21
45 61 87 201 209 314 450 328 705 4 68 11 107 21 119 8 10 51 35 95 56 44 20
89 47 101 60 12 13 50 52 85 85 122 118 207 302 235 510 3 27 8 52 10 55 2 4
6 24 9 45 14 95 59 225 113 329 46 89 173 217 257 262 33 17 96 43 139 58 196
65 436 283 515 469 21 49 51 152 56 196 2 14 6 54 10 90 4 35 15 75 23 88 11
16 18 59 21 132 3 60 10 112 14 117 5 4 37 6 72 5 56 -3 67 0 87 20 l23 23
-67 3 -68 3 0 44 c0 24 -4 46 -9 49 -8 5 -60 -9 -93 -25 -24 -12 -68 -11 -68
1 0 5 -15 20 -33 31 -18 12 -46 39 -62 61 -16 21 -37 38 -47 38 -21 0 -25 41
-8 84 9 24 8 25 -22 19 -30 -6 -31 -5 -25 23 3 19 0 35 -11 48 -12 13 -17 38
-18 90 0 39 -4 97 -7 128 -5 48 -3 61 15 83 27 34 69 50 140 53 57 2 58 2 83
-38z m1153 18 c7 -7 12 -21 12 -32 0 -37 -27 -100 -45 -106 -11 -4 -19 -19
-21 -41 -7 -63 -78 -93 -109 -45 -16 24 -15 27 21 75 21 27 51 55 67 62 26 11
28 16 22 45 -4 25 -2 35 12 43 23 13 27 13 41 -1z m-418 -52 c0 -31 -17 -37
-52 -19 -42 21 -36 43 12 43 36 0 40 -3 40 -24z m578 -137 c-5 -16 -56 -44
-64 -36 -11 11 27 47 48 47 11 0 18 -5 16 -11z m-517 -109 c37 -20 13 -92 -42
-124 -45 -27 -69 -14 -69 37 0 24 7 52 15 64 13 19 26 25 68 32 5 0 17 -4 28
-9z m334 -20 c-10 -11 -23 -20 -28 -20 -6 0 0 11 13 25 27 29 42 25 15 -5z
m-187 -12 c20 -20 14 -54 -12 -66 -30 -13 -36 -7 -36 33 0 45 21 60 48 33z
m-23 -128 c0 -18 -6 -26 -22 -28 -13 -2 -23 -9 -23 -17 0 -13 -120 -125 -134
-125 -15 0 -4 35 19 56 16 15 25 34 25 54 0 22 6 33 23 39 12 5 31 18 41 30
28 31 71 25 71 -9z m-246 -47 c17 -10 31 -22 31 -28 0 -5 -13 -32 -28 -60 -25
-47 -29 -50 -67 -50 l-40 0 -3 53 c-3 45 0 58 19 78 27 29 47 30 88 7z m-829
-108 c12 -19 25 -35 28 -35 4 0 20 -11 36 -25 16 -14 34 -25 41 -25 22 0 48
-39 51 -77 2 -21 6 -54 10 -75 5 -30 3 -38 -15 -47 -11 -7 -21 -18 -21 -25 0
-18 -26 -27 -55 -20 -22 5 -23 4 -14 -42 5 -26 16 -55 24 -64 8 -9 15 -21 15
-27 0 -6 14 -25 30 -43 33 -36 33 -65 -1 -75 -14 -5 -18 -12 -13 -23 20 -48
16 -59 -35 -107 -32 -30 -51 -57 -51 -71 0 -37 -11 -54 -35 -54 -17 0 -24 -7
-28 -30 -6 -25 -11 -30 -37 -30 -26 0 -34 -7 -58 -52 -37 -71 -83 -118 -116
-118 -17 0 -29 -7 -32 -17 -11 -37 -22 -46 -107 -90 -82 -42 -89 -44 -106 -29
-10 9 -25 16 -33 16 -17 0 -66 -44 -84 -75 -10 -16 -14 -18 -25 -7 -21 19 -29
14 -29 -17 0 -38 -15 -47 -45 -27 -24 16 -25 15 -25 -5 0 -19 -4 -20 -35 -15
l-35 7 0 -41 c0 -33 -3 -40 -20 -40 -16 0 -20 7 -20 33 0 21 -8 41 -20 52 -11
10 -20 24 -20 32 0 7 -6 16 -13 19 -8 3 -14 18 -14 34 0 25 4 30 24 30 16 0
27 8 33 24 4 13 20 26 34 30 14 3 33 17 42 31 22 33 31 32 48 -10 10 -24 22
-35 35 -35 18 0 21 6 21 45 0 38 3 45 20 45 17 0 20 -7 21 -42 l1 -43 10 30
c6 17 22 47 35 68 13 21 26 51 30 67 4 22 11 30 26 30 11 0 43 14 70 32 l50
32 18 -23 19 -23 11 26 c12 26 38 42 48 29 10 -14 62 -34 72 -28 13 9 10 84
-5 127 -11 30 -11 42 -1 60 6 13 33 63 58 111 29 55 47 101 47 122 0 19 5 37
10 40 6 3 10 22 10 41 0 19 5 34 11 34 7 0 9 16 4 49 l-7 48 36 7 c33 6 36 10
36 40 0 27 -5 35 -22 39 -22 6 -23 11 -25 114 -1 59 1 111 3 115 3 4 18 8 34
8 22 0 33 -8 50 -35z m707 -97 c31 -29 29 -66 -8 -117 -23 -30 -37 -41 -53
-39 -19 3 -21 8 -18 68 5 105 30 134 79 88z m-1832 -15 c-15 -62 -92 -143
-125 -131 -9 3 115 158 127 158 3 0 2 -12 -2 -27z m219 -30 c-12 -49 -49 -126
-101 -208 -74 -118 -81 -133 -148 -335 -58 -172 -82 -262 -76 -284 5 -20 -12
-66 -24 -66 -19 0 -32 -26 -40 -79 -9 -59 -70 -227 -94 -257 -11 -14 -27 -47
-36 -74 -14 -41 -32 -64 -115 -138 -114 -102 -152 -124 -232 -130 -46 -4 -64
0 -92 18 -20 12 -36 25 -36 30 0 4 30 15 66 24 147 37 256 120 328 249 44 78
67 143 137 376 104 344 228 658 289 726 19 22 46 60 59 85 38 71 57 88 104 89
14 1 16 -4 11 -26z m677 -75 c79 -58 102 -97 74 -128 -8 -9 -15 -28 -15 -42 0
-14 -8 -36 -19 -49 -10 -13 -21 -40 -25 -60 -11 -59 -63 -153 -121 -218 -30
-34 -55 -68 -55 -76 0 -8 -28 -33 -63 -54 -41 -26 -71 -54 -85 -79 -18 -32
-29 -41 -59 -46 -21 -3 -68 -23 -105 -45 -36 -21 -86 -46 -110 -56 -28 -11
-54 -31 -76 -61 -18 -24 -37 -44 -41 -44 -5 0 -7 -8 -4 -19 3 -14 -8 -26 -46
-49 -34 -22 -53 -40 -57 -59 -4 -16 -18 -41 -31 -56 -12 -16 -23 -41 -23 -57
0 -38 -18 -83 -29 -75 -14 8 -31 -28 -31 -62 0 -16 -5 -34 -12 -41 -9 -9 -9
-18 0 -37 22 -47 15 -65 -28 -82 -44 -18 -42 -30 6 -34 39 -4 64 15 64 49 0
42 22 90 47 101 24 11 30 40 12 58 -6 6 -9 21 -7 34 3 21 9 24 50 27 39 3 49
0 58 -19 7 -12 9 -36 5 -55 -3 -21 -2 -34 4 -34 18 0 24 -48 8 -64 -13 -13
-17 -13 -26 -2 -7 8 -21 16 -32 19 -18 5 -20 2 -14 -24 5 -21 2 -36 -10 -48
-15 -17 -14 -21 15 -49 33 -33 41 -85 15 -96 -9 -3 -15 -18 -15 -39 0 -19 -7
-40 -15 -47 -10 -8 -15 -31 -15 -69 0 -31 -12 -118 -26 -194 -25 -125 -29
-138 -51 -143 -13 -4 -23 -12 -23 -18 0 -7 -15 -34 -32 -62 -18 -27 -38 -62
-44 -78 -7 -20 -20 -33 -38 -37 -16 -4 -37 -16 -48 -26 -25 -23 -52 -7 -56 34
-2 24 11 51 68 129 39 55 81 108 94 119 21 18 26 41 50 227 26 204 25 245 -3
263 -6 3 -22 -6 -35 -22 -20 -23 -22 -31 -12 -43 18 -22 12 -57 -14 -85 -16
-17 -20 -29 -15 -46 17 -52 8 -126 -20 -176 -16 -28 -27 -61 -26 -79 1 -21 -9
-45 -34 -77 -19 -25 -35 -52 -35 -60 0 -21 -47 -60 -64 -54 -22 9 -22 87 -1
87 11 0 15 11 15 35 0 20 6 46 14 58 14 21 28 152 30 283 1 34 7 68 14 76 9
12 10 18 2 23 -24 15 -30 55 -14 100 11 33 12 50 4 64 -14 26 -3 49 31 67 29
14 40 30 17 21 -16 -6 -48 10 -48 24 0 6 7 18 16 27 13 12 15 27 10 70 -7 60
3 82 39 82 30 0 34 7 24 42 -5 20 -5 36 1 43 5 6 16 31 25 54 8 23 24 54 35
69 12 15 31 42 43 61 12 19 42 49 67 66 25 17 53 47 62 66 9 19 17 31 18 26 1
-21 82 30 130 83 30 32 84 77 120 98 40 24 66 47 68 59 2 11 25 43 52 72 62
66 105 131 125 190 9 25 20 53 25 61 4 9 11 45 15 80 8 73 19 93 46 85 22 -7
59 27 59 55 0 19 24 39 46 40 7 0 45 -24 85 -52z m-414 21 c28 1 35 -4 53 -39
11 -21 20 -46 20 -54 0 -9 11 -23 26 -32 16 -11 24 -24 22 -38 -3 -18 -10 -21
-52 -21 -55 0 -66 -12 -42 -47 20 -28 20 -58 1 -84 -8 -10 -15 -27 -15 -36 0
-10 -9 -22 -19 -28 -16 -8 -26 -5 -49 15 -17 14 -33 25 -36 25 -14 0 -4 -40
19 -74 37 -55 33 -72 -17 -80 -51 -8 -67 5 -74 59 -5 43 -52 125 -71 125 -14
0 -28 -43 -20 -57 13 -21 -10 -34 -44 -25 l-34 9 2 58 c2 51 6 62 33 86 26 24
30 35 30 78 0 68 22 68 83 0 58 -63 71 -58 62 26 -5 42 -3 65 4 69 8 5 7 13
-3 28 -25 35 -9 51 43 43 25 -4 61 -6 78 -6z m1247 -117 c2 -4 -17 -32 -44
-62 l-49 -55 -1 56 c0 31 3 59 7 62 9 10 81 9 87 -1z m-1903 -36 c10 -20 3
-43 -50 -159 -34 -75 -71 -173 -83 -218 -13 -54 -31 -96 -50 -120 -16 -19 -31
-53 -34 -75 -3 -21 -12 -53 -20 -71 -18 -40 -18 -53 2 -81 12 -18 13 -22 1
-22 -22 0 -47 -34 -63 -86 -8 -26 -23 -57 -33 -68 -26 -28 -44 -77 -33 -88 16
-16 62 13 62 39 0 36 18 63 41 63 18 0 20 -4 14 -27 -3 -16 -12 -35 -19 -43
-7 -8 -18 -30 -24 -47 -6 -18 -22 -45 -36 -60 -14 -15 -26 -31 -26 -35 0 -5
-4 -8 -10 -8 -5 0 -10 15 -10 33 0 44 -7 49 -42 31 -30 -16 -87 -72 -88 -87 0
-5 26 -6 58 -2 l57 6 -28 -25 c-48 -44 -144 -45 -107 -1 17 20 10 19 -57 -10
-85 -38 -99 -24 -67 67 11 35 22 48 41 53 72 18 150 103 220 241 61 119 80
178 133 399 36 150 46 177 82 230 82 119 140 195 149 195 5 0 14 -11 20 -24z
m1732 -154 c16 -7 14 -12 -15 -52 l-33 -45 -3 32 c-3 32 12 74 26 72 4 0 15
-4 25 -7z m-1305 -190 c-2 -9 -11 -18 -21 -20 -13 -3 -17 3 -17 28 0 28 2 30
21 20 11 -6 19 -19 17 -28z m-134 -15 c11 -23 33 -61 48 -83 15 -23 28 -51 28
-63 0 -24 -33 -41 -81 -41 -24 0 -29 4 -29 24 0 13 -7 26 -15 30 -12 4 -15 24
-15 91 0 82 1 85 23 85 16 0 27 -12 41 -43z m1316 9 c0 -8 -4 -18 -10 -21 -5
-3 -10 3 -10 14 0 12 5 21 10 21 6 0 10 -6 10 -14z m-1815 -444 c0 -12 -3 -22
-8 -22 -32 0 -40 2 -29 7 6 2 12 14 12 25 0 11 5 18 13 15 6 -2 12 -13 12 -25z
m-295 -46 c0 -36 -15 -56 -42 -56 -22 0 -22 -2 2 55 22 51 40 52 40 1z m280 4
c0 -5 -4 -10 -9 -10 -6 0 -13 5 -16 10 -3 6 1 10 9 10 9 0 16 -4 16 -10z m618
-221 c2 -89 1 -97 -17 -102 -15 -3 -21 2 -26 21 -3 14 -22 43 -41 64 -38 43
-41 54 -19 85 15 22 43 32 80 29 18 -1 20 -9 23 -97z m863 69 c-43 -111 -49
-118 -108 -144 -43 -19 -79 -47 -139 -110 -117 -120 -171 -232 -225 -459 -22
-93 -45 -148 -85 -202 -13 -17 -24 -34 -24 -37 0 -3 20 -6 45 -6 l45 0 0 -48
c0 -71 -19 -92 -85 -92 -30 0 -57 -5 -60 -10 -3 -6 3 -23 14 -39 13 -18 21
-45 21 -69 0 -33 -6 -45 -35 -71 -41 -35 -51 -37 -84 -15 -21 15 -23 22 -17
69 3 29 13 65 21 81 8 16 15 52 15 80 0 43 6 58 35 96 26 35 35 57 37 94 2 30
10 56 21 66 9 10 17 33 17 52 0 19 5 38 10 41 6 3 10 18 10 32 0 13 9 38 21
54 11 16 23 46 26 66 4 21 19 65 35 98 15 33 28 69 28 80 0 37 106 180 190
256 84 77 167 122 208 112 12 -3 22 -1 22 5 0 13 28 42 40 42 6 0 6 -9 1 -22z
m-351 -147 c0 -12 -57 -83 -82 -102 -12 -10 -19 -23 -15 -32 8 -21 -16 -50
-39 -46 -30 6 -31 52 -1 68 13 7 29 28 36 46 7 19 24 44 38 55 26 20 63 27 63
11z m280 -29 c0 -5 -7 -17 -15 -28 -14 -18 -14 -18 -15 9 0 17 5 27 15 27 8 0
15 -4 15 -8z m-1341 -207 c1 -33 4 -45 10 -36 7 10 9 8 8 -10 0 -13 3 -36 7
-51 6 -22 3 -32 -17 -50 -21 -19 -23 -27 -14 -48 5 -14 14 -68 18 -120 5 -52
11 -118 15 -146 5 -41 3 -52 -10 -57 -25 -10 -41 1 -64 42 -12 21 -29 44 -38
52 -8 7 -24 29 -34 50 -11 20 -42 53 -69 73 -47 33 -78 85 -55 93 5 2 15 7 23
12 21 13 -3 41 -29 34 -17 -5 -20 0 -20 30 0 66 59 78 93 17 10 -19 26 -39 34
-43 8 -5 18 -20 23 -33 11 -28 37 -41 52 -26 6 6 5 20 -6 40 -9 17 -16 49 -16
72 0 22 -5 49 -12 60 -18 29 1 70 47 101 47 32 53 26 54 -56z m-549 36 c0 -10
-7 -24 -15 -31 -12 -10 -15 -10 -15 3 0 23 11 47 21 47 5 0 9 -8 9 -19z m1810
-42 c0 -23 -41 -149 -48 -149 -4 0 -18 7 -31 16 -20 15 -22 22 -16 63 10 68
20 81 60 81 20 0 35 -5 35 -11z m-1732 -96 c2 -80 -10 -101 -62 -110 -47 -7
-66 9 -66 59 0 68 40 117 95 118 l31 0 2 -67z m1323 57 c24 -13 27 -93 4 -116
-8 -9 -18 -27 -21 -42 -7 -29 -31 -62 -46 -62 -17 0 -8 101 13 141 11 23 18
48 15 56 -6 14 0 33 10 33 3 0 14 -5 25 -10z m283 -171 c25 -20 35 -49 18 -49
-5 0 -17 -18 -27 -41 -20 -44 -44 -62 -69 -53 -48 18 -18 164 33 164 10 0 30
-9 45 -21z m-1689 -105 l39 -32 -27 -54 c-40 -79 -48 -111 -59 -238 -22 -253
-14 -324 59 -538 49 -146 55 -172 55 -245 0 -45 -5 -95 -11 -112 -10 -25 -10
-31 5 -42 22 -16 34 -8 34 21 0 31 17 44 65 48 32 2 39 7 37 21 -2 12 6 19 28
23 25 5 30 11 30 34 0 15 11 39 25 54 14 15 28 39 32 54 3 15 12 32 20 37 13
10 47 92 63 150 4 17 16 53 27 81 l20 51 -23 39 c-17 28 -24 54 -24 92 0 61
-25 121 -76 181 -24 27 -34 49 -32 65 2 16 -7 33 -29 53 -35 33 -53 85 -53
156 0 31 -7 57 -19 75 -22 30 -18 82 5 82 29 0 95 -53 93 -74 -2 -36 0 -43 25
-54 15 -6 26 -22 30 -44 4 -20 22 -47 46 -69 34 -32 40 -43 40 -78 0 -32 6
-48 25 -65 19 -18 25 -33 25 -67 0 -26 8 -56 19 -73 14 -20 17 -39 14 -67 -4
-24 -1 -45 7 -54 8 -10 13 -37 11 -69 -1 -37 3 -58 14 -69 21 -22 19 -41 -9
-74 -33 -40 -53 -90 -61 -153 -7 -61 -33 -128 -58 -148 -11 -10 -14 -23 -10
-43 5 -24 1 -31 -26 -46 -17 -10 -31 -23 -31 -29 0 -6 -12 -24 -27 -41 -16
-16 -36 -44 -45 -62 -11 -20 -27 -33 -45 -37 -40 -8 -73 -62 -73 -119 0 -39
-4 -47 -25 -57 -22 -10 -30 -6 -84 41 -38 33 -62 62 -66 81 -8 37 -2 47 35 55
30 7 38 27 21 53 -11 18 -40 1 -67 -40 -10 -16 -34 -37 -52 -48 -18 -11 -35
-27 -39 -36 -7 -19 21 -70 37 -66 16 4 83 -33 106 -60 14 -15 27 -52 37 -109
20 -109 10 -157 -40 -195 -19 -14 -37 -23 -40 -20 -4 4 3 34 15 69 33 94 30
113 -28 175 -27 29 -52 63 -56 76 -3 12 -18 30 -34 40 -21 12 -31 27 -35 54
-3 20 -8 47 -11 59 -3 17 3 26 24 37 37 19 87 113 103 194 16 85 0 174 -56
312 -55 134 -85 251 -85 332 0 121 27 292 54 345 30 57 33 75 22 127 -6 24 -4
58 4 93 l12 55 27 -28 c14 -16 44 -43 66 -60z m1345 7 c0 -6 -4 -13 -10 -16
-5 -3 -10 1 -10 9 0 9 5 16 10 16 6 0 10 -4 10 -9z m-40 -41 c-6 -11 -13 -20
-16 -20 -2 0 0 9 6 20 6 11 13 20 16 20 2 0 0 -9 -6 -20z m-33 -107 c-3 -10
-5 -4 -5 12 0 17 2 24 5 18 2 -7 2 -21 0 -30z m-1134 -87 c20 -19 37 -44 37
-55 0 -11 5 -23 11 -26 5 -4 8 -19 4 -34 -3 -15 1 -44 11 -66 11 -26 14 -54
10 -81 -4 -35 -2 -45 19 -64 32 -30 32 -57 -1 -91 -25 -26 -25 -29 -10 -50 23
-33 20 -66 -5 -74 -16 -5 -20 -13 -16 -31 2 -13 -2 -29 -9 -35 -8 -6 -14 -22
-14 -34 0 -29 -22 -47 -52 -43 -20 3 -23 8 -21 41 2 21 -3 51 -11 65 -7 15
-16 50 -19 79 -3 29 -11 63 -18 75 -7 13 -11 52 -10 90 2 55 -1 70 -16 83 -17
14 -18 30 -16 147 3 104 7 135 19 149 15 16 19 17 43 4 14 -8 43 -30 64 -49z
m1124 32 c-3 -8 -6 -5 -6 6 -1 11 2 17 5 13 3 -3 4 -12 1 -19z m398 -245 c-3
-15 -10 -67 -14 -117 -7 -85 -12 -99 -66 -201 -81 -154 -103 -193 -142 -243
-18 -24 -33 -49 -33 -56 0 -7 -14 -27 -31 -45 -23 -24 -29 -40 -27 -63 l3 -31
143 -2 c78 -1 144 -4 146 -6 2 -2 7 -19 11 -38 l7 -33 -33 8 c-76 20 -283 3
-341 -27 -10 -5 -33 -9 -53 -9 -58 0 -67 45 -18 101 7 9 32 54 54 100 22 46
51 93 65 104 13 12 33 45 43 74 25 67 271 511 283 511 6 0 7 -12 3 -27z m-424
-230 c13 -34 1 -81 -23 -97 -26 -16 -72 22 -76 63 -4 42 13 61 54 61 28 0 36
-5 45 -27z m-141 -53 c0 -48 -109 -133 -187 -146 -48 -7 -50 -12 -32 -94 8
-40 7 -63 -5 -113 -9 -35 -16 -84 -16 -109 0 -50 -11 -65 -58 -74 -25 -5 -33
-2 -47 19 -18 28 -13 45 26 96 15 18 19 41 19 100 0 43 4 81 10 87 5 5 10 25
11 44 2 19 6 40 10 45 4 6 11 26 16 45 8 29 15 36 44 41 19 4 65 23 102 43 78
41 107 46 107 16z m265 -90 c26 -29 13 -66 -30 -80 -32 -11 -35 -15 -35 -51 0
-46 -8 -48 -44 -13 -34 35 -33 54 9 104 19 23 35 46 35 51 0 17 47 9 65 -11z
m-215 -55 c8 -21 4 -37 -20 -83 -29 -55 -62 -92 -81 -92 -17 0 -49 65 -49 100
0 62 39 98 108 99 26 1 34 -4 42 -24z m-145 -234 c16 -19 16 -22 -1 -60 -15
-33 -24 -41 -46 -41 -16 0 -28 3 -29 8 -5 73 -5 98 -2 105 8 15 60 6 78 -12z
m-1137 -53 c6 -50 -36 -93 -52 -52 -6 14 1 59 11 77 10 18 38 1 41 -25z m1182
-153 c0 -29 -47 -56 -60 -35 -14 22 -12 35 12 65 20 26 22 27 35 9 7 -10 13
-27 13 -39z m-142 23 c7 -7 12 -17 12 -23 0 -20 -90 -135 -106 -135 -8 0 -26
11 -39 25 -29 28 -35 95 -11 114 34 28 123 40 144 19z m754 -79 c10 -12 16
-24 13 -29 -2 -4 9 -79 26 -166 42 -224 42 -224 37 -224 -21 0 -79 34 -88 50
-9 17 -6 25 19 50 l30 30 -28 15 c-26 13 -30 13 -46 -5 -21 -23 -35 -26 -35
-7 0 7 -11 23 -24 34 -21 18 -25 34 -31 107 -5 52 -11 83 -17 80 -6 -4 -8 -20
-5 -38 3 -17 -2 -57 -10 -89 -15 -54 -18 -58 -40 -54 -16 3 -33 -3 -49 -17
l-25 -21 22 -73 c28 -90 21 -102 -44 -77 -53 20 -77 13 -52 -15 9 -10 28 -21
42 -25 22 -5 24 -10 20 -38 -3 -24 2 -39 19 -60 48 -57 54 -142 13 -186 -28
-30 -54 -26 -85 14 -33 44 -48 45 -39 4 5 -22 3 -34 -6 -40 -23 -14 -36 -10
-53 15 -19 30 -12 54 19 62 16 4 21 11 18 25 -7 24 -9 24 -45 -6 -16 -14 -38
-25 -49 -25 -24 0 -59 55 -59 93 0 15 -11 44 -25 65 -53 81 -83 245 -57 313
23 60 228 249 269 249 11 0 30 -11 43 -25 32 -34 40 -32 40 11 l0 35 133 -5
c119 -5 134 -8 149 -27z m-934 -47 c3 -27 -2 -35 -27 -49 -16 -10 -32 -25 -35
-33 -3 -8 -15 -26 -26 -40 -12 -15 -23 -47 -27 -78 -3 -28 -7 -52 -9 -52 -24
0 -57 26 -70 57 -28 67 -34 93 -20 93 28 0 108 54 144 96 42 51 66 53 70 6z
m46 -146 c0 -38 -5 -53 -23 -67 -44 -35 -81 -18 -81 37 0 23 5 33 20 37 12 3
20 14 20 27 0 18 5 21 33 18 31 -3 32 -4 31 -52z m-110 -148 c20 -28 20 -42 0
-84 -13 -27 -22 -34 -45 -34 -15 0 -31 5 -34 10 -11 18 -43 11 -63 -14 -24
-31 -42 -17 -42 31 l0 33 44 -6 c42 -6 43 -6 50 26 11 57 62 78 90 38z m-473
-60 c21 -27 26 -88 6 -88 -8 0 -21 -30 -33 -77 -29 -114 -74 -138 -149 -79
l-28 22 61 67 c36 40 63 80 67 100 8 38 31 77 46 77 6 0 19 -10 30 -22z m1526
-84 c52 -32 47 -22 113 -229 43 -136 166 -453 181 -469 5 -6 9 -29 9 -52 0
-33 10 -59 42 -111 23 -37 49 -77 59 -88 9 -11 29 -44 43 -73 15 -29 33 -55
41 -59 16 -6 22 -93 6 -93 -26 0 -131 138 -131 173 0 7 -11 20 -25 27 -27 15
-46 62 -49 119 -1 27 -5 37 -14 33 -9 -3 -12 5 -11 29 3 61 -1 87 -16 103 -8
8 -44 101 -79 208 -72 219 -77 232 -124 308 -70 113 -116 137 -167 85 -44 -44
-35 -64 119 -263 150 -195 157 -205 162 -249 6 -46 -6 -67 -34 -59 -13 5 -21
19 -26 46 -3 21 -17 52 -31 68 -14 17 -25 35 -25 42 0 17 -52 87 -71 97 -28
14 -187 203 -208 246 -36 78 -36 100 1 137 68 68 150 76 235 24z m-769 -27
c10 -19 25 -51 32 -71 7 -21 26 -54 43 -73 36 -40 30 -62 -21 -77 -24 -7 -36
-4 -56 11 -20 16 -35 19 -76 15 -44 -4 -52 -2 -56 14 -9 35 -5 39 43 44 40 4
49 9 51 27 2 13 -4 33 -12 45 -16 23 -22 79 -9 91 16 16 42 5 61 -26z m-202
-11 c10 -41 1 -71 -22 -74 -28 -4 -38 22 -23 65 12 39 36 44 45 9z m130 -247
c4 -8 9 -8 17 0 6 6 26 11 44 11 30 0 33 -3 33 -30 0 -29 -2 -30 -43 -30 -37
0 -46 -4 -55 -25 -7 -14 -12 -44 -12 -66 0 -51 -21 -48 -33 5 -12 47 -31 55
-62 26 -22 -20 -28 -22 -51 -11 -23 10 -26 16 -21 48 8 45 10 47 36 31 19 -12
24 -10 47 20 20 25 33 32 59 32 19 0 37 -5 41 -11z m651 -33 c4 -8 34 -42 66
-76 32 -34 62 -72 67 -85 5 -12 28 -34 52 -47 24 -14 42 -30 40 -38 -6 -25 10
-71 35 -100 22 -27 23 -32 12 -64 -10 -28 -10 -38 0 -50 10 -12 9 -20 -3 -43
-36 -65 -54 -75 -90 -48 -11 8 -28 15 -38 15 -28 0 -78 29 -78 45 0 27 30 46
63 40 35 -6 63 7 53 23 -10 16 -71 25 -92 14 -26 -13 -44 -4 -44 22 0 15 9 27
25 34 29 13 31 22 9 63 -14 28 -14 32 0 48 20 22 20 70 0 96 -15 20 -16 20
-35 -7 -14 -20 -30 -28 -50 -28 -16 0 -29 -4 -29 -10 0 -5 -10 -10 -22 -10
-26 1 -68 32 -68 51 0 6 -18 29 -40 49 -30 28 -38 41 -33 59 5 19 10 21 32 16
14 -4 32 -8 38 -9 7 -1 23 -12 37 -25 28 -27 42 -14 24 23 -10 23 -9 28 8 41
24 18 51 19 61 1z m-855 -92 c38 -20 58 -52 58 -97 0 -47 -22 -58 -54 -28 -31
29 -36 27 -29 -13 5 -32 4 -33 -21 -29 -32 6 -33 -5 -4 -42 20 -25 25 -27 71
-22 38 5 58 2 88 -13 21 -11 40 -20 43 -20 2 0 2 17 -1 38 -4 34 -1 42 22 60
35 28 50 28 113 -4 34 -17 64 -42 87 -74 19 -26 41 -50 48 -53 11 -4 39 -83
42 -119 1 -10 -4 -18 -12 -18 -16 0 -16 5 -13 -166 2 -120 0 -142 -15 -154
-12 -10 -21 -11 -33 -3 -14 8 -17 28 -18 104 0 92 -14 183 -33 217 -16 27
-124 138 -148 151 -29 15 -33 14 -33 -8 0 -24 -17 -37 -57 -46 -22 -4 -39 -18
-53 -41 -12 -19 -26 -34 -31 -34 -14 0 -69 -62 -69 -77 0 -29 -24 -21 -65 21
-67 69 -95 186 -59 241 12 18 14 37 9 72 -6 46 -4 50 24 71 21 15 31 31 31 49
0 58 42 72 112 37z m576 -4 c13 -16 28 -30 35 -30 7 0 55 -44 108 -97 74 -76
102 -112 123 -161 33 -75 29 -104 -17 -132 -65 -40 -113 -20 -186 78 -54 74
-70 110 -102 236 -11 44 -27 92 -35 108 l-15 28 34 0 c25 0 38 -7 55 -30z
m-925 -100 c-3 -61 -39 -110 -79 -110 -29 0 -41 18 -40 60 1 31 6 38 46 58 55
27 76 25 73 -8z m835 -118 c2 -35 -10 -52 -35 -52 -16 0 -17 54 -1 79 17 28
35 15 36 -27z m-948 -84 c0 -40 -15 -67 -29 -53 -6 6 -17 27 -26 48 l-15 37
35 0 c33 0 35 -2 35 -32z m1699 -43 c15 -61 14 -150 -2 -164 -8 -6 -15 -31
-15 -57 -2 -48 -31 -108 -77 -157 -54 -57 -64 -60 -238 -63 -89 -1 -179 2
-200 7 -39 10 -107 70 -107 94 0 25 59 17 117 -16 49 -28 61 -31 121 -27 50 3
84 13 135 38 98 48 138 87 185 179 39 74 42 87 42 157 0 64 2 75 14 65 8 -6
19 -31 25 -56z m-1445 -85 c31 -11 34 -38 7 -71 l-18 -23 -27 27 c-30 30 -33
52 -8 66 21 13 16 13 46 1z m1241 -61 c12 -19 -5 -59 -30 -71 -13 -6 -25 -20
-27 -32 -2 -16 -11 -22 -35 -24 -25 -3 -40 4 -69 31 -44 40 -41 61 11 76 27 7
42 7 56 -2 16 -10 21 -8 34 11 17 23 49 29 60 11z m-857 -41 c7 -7 12 -36 12
-65 l0 -53 -35 0 c-38 0 -44 -10 -20 -30 9 -8 30 -11 54 -7 48 6 84 -15 79
-46 -3 -21 -8 -22 -123 -21 -142 1 -161 8 -257 93 l-66 59 -101 7 c-56 4 -101
9 -101 12 0 2 5 13 10 24 10 17 22 19 133 19 l123 0 49 -50 c80 -81 164 -93
116 -17 -27 44 -27 44 8 52 16 3 35 13 42 21 14 17 60 19 77 2z m150 -85 c-4
-108 -25 -110 -30 -4 -3 72 -1 81 15 81 16 0 18 -9 15 -77z m-548 -102 c0 -16
-32 -42 -48 -39 -8 2 -21 13 -30 26 -14 22 -14 22 32 22 25 0 46 -4 46 -9z
m1020 -116 c7 8 20 15 28 15 17 0 102 -78 102 -93 0 -5 -15 -5 -32 -1 -18 4
-66 9 -107 13 -70 6 -75 8 -84 34 -5 15 -6 34 -3 43 5 12 11 12 45 -5 34 -18
41 -19 51 -6z m-1006 9 c10 -4 16 -18 16 -35 0 -48 -13 -39 -48 34 -4 9 11 9
32 1z m346 -19 c0 -12 6 -14 28 -8 15 4 43 8 62 8 32 0 35 -2 32 -25 -7 -51
-67 -67 -99 -27 -18 23 -60 46 -48 27 8 -12 -16 -50 -32 -50 -7 0 -13 9 -13
20 0 11 -5 20 -11 20 -5 0 -7 5 -4 10 4 6 10 8 14 5 5 -2 17 4 27 15 23 23 44
25 44 5z m875 -5 c31 -19 34 -19 85 -3 41 13 56 14 71 5 23 -15 85 -16 94 -2
9 15 48 12 71 -4 16 -12 22 -12 46 2 23 13 31 14 64 1 52 -20 53 -36 2 -49
-23 -7 -56 -21 -71 -32 l-29 -21 -28 22 c-31 22 -70 28 -70 11 0 -6 -11 -15
-24 -21 -20 -9 -30 -7 -65 16 l-41 28 -21 -27 c-25 -32 -51 -33 -106 -4 -43
23 -52 43 -37 82 8 21 20 20 59 -4z m-635 -19 c0 -32 -22 -56 -45 -47 -15 5
-21 56 -8 69 3 4 17 7 30 7 19 0 23 -5 23 -29z m163 8 c23 -32 15 -54 -21 -57
-27 -3 -32 0 -32 18 0 26 17 60 30 60 5 0 15 -9 23 -21z m143 -15 c8 -33 -15
-59 -45 -49 -25 8 -27 32 -4 57 23 25 41 22 49 -8z m1008 -11 c27 -39 22 -53
-18 -53 -21 0 -56 27 -56 43 0 13 30 47 41 47 5 0 20 -17 33 -37z m-1704 7 c0
-26 -36 -46 -56 -29 -8 6 -14 20 -14 30 0 15 7 19 35 19 28 0 35 -4 35 -20z
m36 -88 c6 -4 16 -17 23 -29 13 -25 5 -47 -27 -76 -26 -23 -58 -9 -92 40 l-24
35 23 19 c23 19 76 25 97 11z m257 -8 c27 -8 22 -55 -10 -81 l-28 -22 28 -1
c53 0 138 -39 222 -101 47 -35 85 -68 85 -75 0 -15 30 -40 57 -48 16 -5 30 2
57 29 22 22 46 35 63 36 15 1 37 3 48 4 92 12 123 14 211 15 54 0 117 -2 139
-5 70 -10 189 -54 271 -101 111 -64 120 -67 155 -49 64 34 288 104 350 110
l66 7 36 -44 36 -43 -67 -8 c-37 -4 -83 -12 -102 -17 -19 -6 -49 -10 -67 -10
-18 0 -75 -23 -138 -55 -121 -62 -100 -63 -253 14 -175 88 -281 110 -383 80
-35 -11 -40 -10 -69 15 -36 30 -68 33 -113 11 -38 -18 -117 -88 -117 -104 0
-21 37 -11 75 19 39 31 69 38 81 19 9 -15 11 -37 13 -134 l1 -80 83 87 c81 85
110 103 158 96 l24 -3 3 -295 c1 -176 -2 -323 -8 -365 -6 -38 -14 -91 -17
-118 l-6 -47 -46 26 c-25 15 -57 37 -71 49 -14 12 -32 25 -40 27 -8 3 -34 20
-58 37 -40 30 -42 34 -37 69 4 20 11 51 15 67 16 56 24 148 11 141 -6 -4 -11
-16 -11 -27 0 -11 -9 -45 -20 -76 -11 -32 -20 -67 -20 -80 0 -12 -5 -25 -11
-28 -20 -13 -289 206 -289 236 0 9 11 31 25 47 31 37 34 57 5 42 -12 -6 -28
-27 -37 -46 -9 -19 -20 -33 -24 -32 -4 2 -35 29 -68 61 -57 55 -61 62 -61 103
0 48 -11 55 -42 27 -17 -15 -19 -15 -38 2 -11 10 -20 23 -20 30 0 20 102 78
139 79 37 1 35 5 56 -100 9 -45 56 -40 75 7 7 16 39 52 72 81 l59 51 -48 16
c-39 13 -49 22 -56 46 -5 18 -24 41 -45 55 -20 14 -56 42 -80 63 -24 21 -67
50 -95 65 -45 23 -64 27 -137 27 -77 0 -90 -3 -144 -32 -33 -18 -65 -33 -72
-33 -14 0 -64 60 -64 76 0 15 62 49 100 54 l35 5 5 63 c3 40 10 66 20 73 14 9
90 5 133 -7z m240 -3 c12 -2 8 -68 -5 -78 -7 -6 -32 -13 -56 -17 -58 -9 -102
14 -102 52 0 16 5 33 10 38 9 9 112 12 153 5z m218 -1 c25 -14 26 -71 2 -92
-36 -31 -60 -39 -87 -27 -31 14 -40 39 -31 80 10 43 70 63 116 39z m227 -26
c15 -10 22 -24 22 -45 0 -25 -6 -32 -35 -45 -45 -18 -89 -18 -105 1 -13 15
-16 77 -5 95 9 14 98 10 123 -6z m230 0 c37 -26 27 -47 -39 -78 -55 -26 -62
-27 -76 -13 -9 8 -16 32 -17 53 -1 37 0 38 39 42 22 2 42 6 44 8 8 8 27 4 49
-12z m245 -24 l29 -27 -45 -27 c-51 -29 -89 -33 -107 -11 -16 19 3 69 34 90
26 19 53 11 89 -25z m252 20 c28 -23 16 -45 -44 -77 -33 -18 -67 -33 -76 -33
-11 0 -4 -12 22 -37 40 -38 58 -42 103 -18 30 16 123 45 143 45 8 0 25 -8 38
-19 l23 -18 -32 -17 c-17 -9 -39 -16 -49 -16 -10 0 -26 -7 -37 -15 -10 -8 -43
-20 -72 -26 -48 -11 -56 -10 -74 6 -14 13 -28 16 -55 11 -19 -4 -35 -11 -35
-16 0 -14 -34 -12 -48 2 -7 7 -12 20 -12 30 0 10 -7 29 -15 42 -21 32 -10 56
27 56 27 0 29 2 23 33 -5 26 -2 37 17 54 13 11 32 23 43 26 30 8 94 0 110 -13z
m145 -77 c0 -8 -12 -5 -35 8 -28 17 -35 27 -35 52 l0 32 35 -40 c19 -22 34
-45 35 -52z m-392 -108 c12 -4 22 -13 22 -19 0 -20 -84 -5 -88 16 -3 17 16 18
66 3z m-1107 -53 c19 -11 47 -34 62 -50 34 -35 28 -55 -27 -97 -49 -37 -86
-33 -129 14 -19 22 -40 49 -47 60 -8 16 -20 21 -50 21 -36 0 -40 3 -40 24 0
21 8 27 62 43 70 22 116 18 169 -15z m1049 -226 c25 -9 52 -26 62 -36 9 -11
22 -20 29 -20 12 0 81 -43 105 -65 5 -5 22 -27 36 -48 29 -44 63 -71 78 -62
17 11 144 -207 174 -300 10 -32 28 -60 50 -79 34 -28 39 -56 10 -56 -29 0
-161 128 -230 222 -25 35 -65 78 -90 96 -24 18 -44 38 -44 44 0 21 -53 68 -77
68 -13 0 -23 4 -23 9 0 5 -20 14 -44 20 -25 6 -52 21 -60 33 -10 14 -27 22
-53 23 -50 3 -76 41 -70 102 8 78 40 88 147 49z m-1120 -6 c0 -5 -4 -10 -9
-10 -6 0 -13 5 -16 10 -3 6 1 10 9 10 9 0 16 -4 16 -10z m2050 -101 c29 -24
32 -31 20 -39 -23 -15 -70 -12 -76 5 -7 18 3 65 14 65 4 -1 23 -14 42 -31z
m-93 5 c-3 -3 -12 -4 -19 -1 -8 3 -5 6 6 6 11 1 17 -2 13 -5z m-237 -44 c0
-21 24 -28 35 -10 9 15 51 12 65 -5 15 -18 41 -20 57 -4 13 13 113 -7 113 -22
0 -5 13 -9 28 -9 32 0 52 -16 52 -42 0 -13 8 -18 28 -18 15 -1 38 -7 52 -15
14 -8 44 -14 67 -15 32 0 45 -5 53 -20 6 -11 20 -20 32 -20 11 0 79 -39 151
-87 130 -87 130 -88 99 -97 -24 -7 -40 -4 -74 13 -25 11 -54 21 -65 21 -11 0
-26 7 -33 16 -11 12 -25 14 -67 8 -53 -6 -53 -6 -59 24 -6 30 -7 30 -62 29
-36 -1 -57 3 -60 11 -2 7 -14 12 -27 12 -14 0 -40 14 -60 31 -19 17 -41 29
-49 26 -7 -3 -28 8 -46 24 -26 24 -38 29 -61 24 -23 -5 -36 -1 -60 19 -34 29
-42 31 -68 16 -13 -6 -24 -5 -36 4 -15 11 -23 11 -46 -1 -50 -25 -179 2 -179
37 0 33 30 53 69 46 23 -3 43 0 55 9 11 8 37 15 58 15 31 0 38 -4 38 -20z
m121 -181 c28 1 38 -3 41 -17 6 -21 89 -55 113 -45 9 3 15 -1 15 -11 0 -9 9
-33 20 -53 19 -35 21 -36 77 -36 65 0 123 -20 123 -42 0 -8 9 -24 21 -36 20
-20 20 -21 2 -41 -10 -11 -39 -31 -65 -44 -26 -13 -50 -29 -53 -34 -14 -22
-89 -70 -109 -70 -21 0 -126 90 -126 107 0 19 -40 51 -57 47 -11 -3 -29 6 -47
25 l-29 30 27 13 c24 10 27 16 22 42 -8 40 -34 77 -56 83 -24 6 -36 58 -19 79
9 11 21 13 38 9 14 -4 42 -6 62 -6z m-692 -52 c19 -12 55 -33 80 -47 31 -17
47 -34 52 -53 4 -15 24 -46 44 -68 20 -22 41 -51 47 -65 7 -15 19 -24 35 -24
15 0 27 -8 32 -22 5 -13 23 -33 40 -46 42 -31 39 -42 -12 -42 -30 0 -53 7 -77
25 -19 14 -43 25 -55 25 -21 0 -71 29 -184 105 -40 27 -62 49 -66 66 -3 15
-19 38 -36 53 -39 35 -40 79 -1 100 38 21 62 19 101 -7z m-101 -207 c32 -35
226 -145 283 -162 30 -8 97 -25 149 -38 119 -28 204 -56 206 -67 22 -110 29
-127 69 -182 38 -52 118 -127 186 -174 39 -28 17 -27 -74 1 -137 43 -234 136
-257 247 -6 30 -16 57 -21 61 -5 3 -100 19 -212 35 -199 30 -203 31 -282 76
-136 77 -157 109 -124 183 20 45 47 52 77 20z m1674 -105 c161 -4 266 -28 458
-104 80 -32 169 -66 198 -76 29 -9 51 -19 48 -22 -8 -8 -187 28 -219 44 -15 8
-84 20 -152 28 -68 7 -134 19 -147 26 -13 7 -75 17 -138 22 -283 22 -397 5
-577 -83 -125 -60 -146 -61 -102 -5 89 113 196 164 355 170 35 1 68 5 72 9 4
4 23 4 42 0 19 -3 92 -8 162 -9z m-854 -145 c87 -22 93 -26 88 -46 -5 -17 -1
-24 14 -29 22 -7 26 -35 8 -53 -7 -7 -27 -12 -46 -12 -18 0 -41 -4 -50 -9 -9
-5 -30 -11 -47 -12 -22 -3 -32 1 -41 18 -6 13 -18 31 -26 40 -18 22 -23 137
-5 130 7 -2 54 -14 105 -27z m-723 -30 c10 -11 24 -20 32 -20 17 0 17 -19 -1
-26 -24 -9 -111 40 -100 57 10 16 50 9 69 -11z m1183 -22 c-2 -19 -10 -24 -45
-26 -76 -6 -42 34 40 47 5 0 7 -9 5 -21z m469 -29 c15 -6 75 -15 131 -19 57
-5 109 -13 115 -18 24 -18 143 -54 197 -59 30 -2 82 -11 115 -20 88 -22 331
-63 471 -78 71 -8 200 8 288 36 59 18 72 18 207 6 l144 -14 -56 -25 c-103 -48
-223 -85 -304 -94 -139 -15 -465 -8 -496 11 -6 5 -41 11 -109 20 -25 3 -88 17
-140 32 -148 39 -372 95 -400 99 -14 2 -59 8 -100 14 -158 24 -406 8 -493 -30
l-47 -21 73 -87 c81 -96 142 -181 134 -188 -3 -3 -33 0 -68 6 -56 10 -69 17
-113 62 -28 28 -66 62 -83 75 -18 14 -33 31 -33 39 0 7 -18 31 -40 53 -22 22
-40 44 -40 50 0 17 77 69 160 110 l75 36 185 5 c102 3 188 7 192 8 4 1 19 -3
35 -9z m653 -64 c0 -8 5 -15 11 -15 5 0 7 5 4 10 -3 6 1 10 9 10 9 0 16 -6 16
-14 0 -11 -12 -15 -42 -14 -53 0 -88 16 -67 29 23 15 69 11 69 -6z m289 -36
l75 -12 -28 -23 c-31 -27 -69 -30 -133 -11 -56 17 -70 31 -53 52 9 11 23 15
39 11 14 -3 59 -11 100 -17z m-2287 -6 c34 -31 22 -44 -23 -24 -22 10 -46 24
-52 30 -19 19 54 13 75 -6z m507 11 c17 -4 31 -12 31 -19 0 -6 11 -17 25 -23
28 -13 30 -20 13 -57 -8 -18 -19 -25 -40 -25 -32 0 -38 23 -13 56 25 32 17 36
-55 29 -60 -6 -70 -5 -70 8 0 31 45 44 109 31z m1971 -39 c-27 -29 -46 -31
-72 -8 -29 26 -21 33 39 33 l56 0 -23 -25z m790 -33 c0 -8 -207 -87 -255 -97
-29 -6 -29 -6 -10 10 45 38 179 95 222 95 24 0 43 -3 43 -8z m-2065 -28 c19
-12 28 -13 45 -4 41 22 60 20 72 -6 6 -13 9 -27 5 -30 -3 -3 -35 -9 -71 -11
-66 -6 -79 -16 -54 -41 14 -14 54 -16 62 -3 10 15 68 19 131 9 33 -5 78 -11
100 -13 22 -1 84 -19 137 -38 54 -20 139 -45 190 -56 96 -20 218 -60 218 -71
0 -8 -161 -20 -262 -20 -46 0 -81 7 -115 21 -86 38 -186 69 -219 69 l-33 0 14
-40 14 -40 -59 0 -60 0 0 34 c0 23 -9 45 -24 63 l-25 28 6 -57 6 -58 -29 0
c-27 0 -34 9 -82 95 -28 53 -52 103 -52 112 0 14 46 73 57 73 2 0 14 -7 28
-16z m-532 -42 c30 -31 34 -54 13 -72 -19 -15 -99 19 -115 49 -10 17 -7 22 16
35 40 22 56 20 86 -12z m1288 -92 c22 -12 26 -40 4 -40 -7 0 -37 5 -65 11 -48
10 -58 18 -43 32 10 11 82 8 104 -3z m159 -35 c19 -11 74 -15 240 -15 234 -2
240 -7 46 -40 -89 -15 -139 -18 -203 -13 -78 6 -88 9 -119 38 -19 18 -34 35
-34 39 0 11 44 6 70 -9z"/>
<path d="M3640 9727 c0 -1 9 -20 20 -41 25 -51 14 -76 -35 -76 -37 0 -44 -10
-20 -30 12 -10 24 -10 59 1 36 10 45 18 50 41 8 40 -8 75 -44 93 -16 8 -30 14
-30 12z"/>
<path d="M3940 8970 c0 -5 10 -10 23 -10 18 0 19 2 7 10 -19 13 -30 13 -30 0z"/>
<path d="M3056 8787 c3 -10 9 -15 12 -12 3 3 0 11 -7 18 -10 9 -11 8 -5 -6z"/>
<path d="M3267 5639 c-21 -12 -22 -23 -1 -43 25 -26 41 -20 36 14 -5 36 -12
42 -35 29z"/>
<path d="M3120 5420 c-12 -8 -9 -10 13 -10 15 0 27 5 27 10 0 13 -20 13 -40 0z"/>
<path d="M3122 5300 c-10 -17 -10 -21 2 -26 8 -3 24 0 36 6 17 9 19 14 9 26
-16 20 -32 18 -47 -6z"/>
<path d="M3234 5309 c-10 -16 29 -51 49 -43 23 8 21 31 -2 44 -25 13 -38 13
-47 -1z"/>
<path d="M3729 3395 c-34 -25 -69 -77 -69 -103 0 -9 13 -12 40 -10 32 1 42 6
45 22 16 72 24 111 21 113 -1 2 -18 -9 -37 -22z"/>
<path d="M3425 3392 c-32 -16 -85 -61 -85 -73 0 -4 17 -13 37 -20 35 -11 38
-10 59 17 26 32 39 73 27 84 -4 4 -21 0 -38 -8z"/>
<path d="M3345 3130 c-3 -11 -2 -28 4 -37 8 -15 10 -11 11 20 0 41 -5 47 -15
17z"/>
<path d="M3622 2990 c-12 -19 1 -30 34 -30 20 0 17 27 -4 39 -14 7 -21 5 -30
-9z"/>
<path d="M5191 7749 c-76 -34 -133 -94 -198 -209 -35 -61 -194 -414 -225 -500
-12 -30 -32 -74 -45 -97 -23 -40 -26 -41 -86 -47 -147 -16 -326 -78 -360 -126
-22 -32 -8 -62 38 -79 46 -18 139 -4 230 34 66 27 105 32 105 13 0 -47 -145
-497 -195 -606 -24 -52 -27 -55 -38 -37 -7 13 -11 89 -12 215 -1 130 -5 202
-13 217 -25 46 -113 35 -140 -19 -46 -92 -63 -347 -29 -458 31 -106 94 -163
179 -164 48 -1 52 1 97 50 50 54 66 93 131 304 21 69 53 170 70 225 17 55 43
136 56 179 35 116 44 126 107 125 53 0 124 -11 280 -45 l87 -18 0 -36 c0 -19
-7 -75 -15 -125 -28 -172 -15 -373 36 -550 43 -148 105 -209 211 -210 48 0 62
4 74 19 23 32 17 72 -16 110 -56 63 -60 86 -59 308 1 112 6 255 13 318 l11
115 45 7 c48 8 90 44 90 78 0 23 -45 60 -74 60 -46 0 -49 10 -42 126 4 60 12
138 17 174 16 98 13 385 -5 445 -32 114 -80 184 -144 210 -47 20 -128 18 -181
-6z m90 -136 c8 -19 9 -87 5 -203 -10 -289 -24 -559 -31 -570 -11 -17 -66 -11
-185 20 -63 16 -131 30 -150 30 -61 1 -67 11 -45 72 23 65 132 312 175 399 61
120 181 279 211 279 5 0 14 -12 20 -27z"/>
<path d="M8582 7550 c-124 -89 -175 -236 -272 -767 -13 -73 -25 -112 -43 -135
-14 -18 -53 -87 -87 -153 -91 -174 -133 -245 -201 -334 -88 -118 -197 -184
-248 -152 -11 7 -12 23 -8 68 11 104 36 255 67 403 17 80 37 181 46 225 9 43
20 88 26 98 9 18 11 18 26 3 13 -13 18 -41 20 -121 4 -119 13 -135 61 -115 64
26 89 90 70 177 -24 107 -99 173 -197 173 -49 0 -56 -3 -95 -43 -23 -23 -59
-77 -79 -118 -31 -64 -42 -77 -66 -82 -35 -7 -58 -42 -162 -242 -95 -182 -167
-298 -225 -360 l-46 -50 6 75 c3 41 17 134 30 205 13 72 31 191 38 265 19 189
5 249 -65 283 -27 14 -29 17 -11 17 42 0 83 89 86 185 1 49 -36 86 -95 92 -62
7 -87 -19 -90 -96 -5 -121 -3 -133 28 -158 22 -17 25 -23 12 -23 -10 0 -27 -9
-38 -20 -17 -17 -20 -29 -15 -68 4 -31 -4 -106 -25 -227 -17 -99 -32 -180 -33
-180 -1 -1 -48 2 -104 5 -80 4 -108 10 -128 25 l-26 20 -3 180 c-2 104 -9 197
-16 219 -37 122 -156 130 -215 15 -29 -56 -13 -193 42 -349 9 -25 20 -49 25
-55 17 -19 6 -70 -51 -238 -59 -176 -79 -223 -88 -214 -2 3 -8 81 -13 174 -9
187 -39 331 -78 376 -23 26 -87 23 -115 -5 -13 -13 -60 -115 -106 -228 -46
-113 -88 -212 -93 -220 -6 -9 -7 116 -4 325 5 380 5 382 -63 433 -69 53 -116
60 -148 21 -16 -21 -27 -577 -14 -713 17 -173 71 -260 171 -273 68 -9 109 26
169 148 28 55 51 110 51 122 0 11 3 17 8 13 4 -4 10 -56 13 -114 4 -93 9 -114
34 -161 54 -99 165 -161 230 -130 48 23 70 69 152 315 l78 235 35 -6 c19 -3
80 -7 135 -10 l100 -4 -5 -58 c-19 -218 4 -316 83 -354 30 -15 53 -20 71 -15
69 17 230 237 377 515 24 44 44 79 46 78 1 -2 -4 -30 -12 -62 -25 -101 -31
-271 -12 -336 46 -156 176 -220 310 -153 111 57 241 212 358 430 28 52 54 93
56 90 3 -3 0 -33 -5 -68 -6 -35 -18 -142 -27 -238 -15 -149 -15 -181 -3 -214
18 -53 55 -78 122 -84 52 -4 55 -3 69 25 9 17 23 96 32 182 14 137 19 159 47
210 54 97 106 168 151 205 48 39 112 70 127 61 16 -10 12 -65 -10 -140 -27
-93 -70 -305 -70 -341 0 -45 40 -107 83 -128 36 -17 41 -17 81 -2 101 39 266
219 352 384 20 40 38 71 40 69 2 -1 -1 -20 -6 -42 -17 -72 -24 -249 -11 -286
24 -72 116 -138 194 -139 21 0 54 9 75 19 41 22 127 106 165 164 l25 37 11
-52 c21 -95 84 -148 177 -148 68 0 124 36 167 107 55 93 194 364 207 407 12
37 14 38 26 20 45 -63 88 -88 171 -99 47 -6 103 -23 103 -31 0 -3 -21 -30 -47
-62 -110 -135 -153 -225 -132 -279 23 -63 107 -113 189 -113 42 0 127 48 169
96 62 71 84 127 84 214 1 77 -9 107 -46 148 l-21 22 55 56 c29 31 102 94 161
141 60 46 113 93 118 104 13 24 -2 55 -30 64 -36 12 -148 -68 -308 -220 -87
-82 -84 -81 -187 -47 -125 40 -131 52 -86 164 19 46 35 84 36 86 1 1 22 -3 47
-9 40 -11 49 -10 92 11 106 51 198 228 167 323 -20 58 -54 82 -119 82 -76 0
-115 -21 -203 -108 -72 -71 -170 -208 -191 -267 -8 -24 -15 -30 -30 -27 -30 8
-51 -21 -88 -124 -19 -52 -71 -169 -117 -260 -84 -169 -148 -268 -164 -252
-14 14 20 278 70 548 25 133 26 168 5 228 -36 106 -137 120 -164 23 l-12 -45
-52 41 c-111 89 -172 89 -266 1 -33 -30 -77 -82 -97 -115 -29 -47 -38 -56 -45
-44 -12 21 -31 20 -50 -1 -9 -10 -46 -86 -83 -170 -37 -83 -83 -180 -103 -214
-38 -63 -117 -159 -132 -159 -5 0 0 30 10 68 34 126 40 191 26 259 -25 117
-62 148 -175 147 -98 -1 -193 -32 -271 -90 -33 -24 -60 -41 -60 -36 1 41 36
135 71 192 139 224 166 284 225 499 45 160 50 264 16 329 -45 86 -142 109
-220 52z m125 -195 c-5 -131 -35 -240 -105 -390 -54 -114 -60 -107 -37 45 9
58 22 166 29 240 15 143 29 194 67 229 23 21 24 21 37 4 10 -14 13 -45 9 -128z
m1973 -431 c-13 -38 -88 -127 -123 -146 -17 -9 -17 -7 -6 14 36 69 127 184
137 174 2 -3 -2 -22 -8 -42z m-4066 -146 c3 -13 5 -59 5 -103 l-1 -80 -14 50
c-15 56 -19 155 -5 155 5 0 11 -10 15 -22z m3084 -33 c38 -32 55 -75 49 -122
-12 -101 -39 -262 -48 -298 -20 -75 -70 -156 -140 -230 -80 -84 -101 -95 -131
-68 -18 16 -20 27 -16 113 3 61 15 127 32 185 14 50 37 137 51 195 28 117 53
176 95 220 34 37 68 39 108 5z m856 -665 c-15 -27 -36 -58 -47 -67 -19 -16
-18 -14 3 22 57 97 91 132 44 45z"/>
<path d="M10522 5740 c-20 -12 -40 -37 -51 -64 -28 -65 -81 -227 -81 -248 0
-10 -6 -18 -14 -18 -8 0 -25 -28 -40 -67 -33 -85 -88 -185 -105 -191 -16 -5
-10 63 15 183 18 82 12 131 -16 140 -24 8 -40 -1 -40 -21 0 -19 -7 -18 -37 6
-46 36 -91 19 -138 -54 -10 -15 -24 -25 -32 -22 -9 4 -31 -32 -72 -118 -88
-187 -127 -216 -116 -87 9 103 -4 148 -51 167 -38 16 -40 21 -19 48 33 44 3
112 -46 104 -31 -4 -61 -49 -64 -95 -2 -45 -35 -99 -192 -312 -2 -2 -6 -2 -9
2 -7 6 23 315 32 328 3 5 32 9 64 9 63 0 79 10 55 34 -12 11 -28 14 -65 9
l-50 -6 0 60 c0 61 -11 81 -52 96 -21 7 -31 -7 -33 -47 -4 -108 -3 -105 -41
-121 -45 -19 -41 -20 -48 10 -15 60 -70 52 -138 -20 -23 -25 -48 -45 -54 -45
-7 0 -38 -35 -71 -77 -66 -89 -144 -173 -160 -173 -16 0 -23 40 -14 88 5 23
10 44 12 45 2 1 22 11 44 22 49 25 92 96 82 137 -17 67 -79 74 -130 16 -16
-18 -42 -47 -58 -64 -17 -18 -42 -56 -57 -85 -45 -86 -77 -133 -117 -167 -52
-46 -71 -40 -67 23 3 45 35 221 49 269 5 19 6 19 20 1 8 -12 11 -30 8 -46 -7
-31 9 -46 30 -29 24 20 19 77 -10 105 -40 41 -90 26 -115 -35 -7 -16 -19 -30
-26 -30 -8 0 -44 -46 -80 -102 -96 -149 -130 -182 -114 -111 5 20 11 79 15
132 7 115 -3 144 -52 149 -26 3 -39 -5 -75 -40 -24 -24 -54 -56 -66 -73 l-21
-30 -1 45 c0 54 -22 90 -54 90 -20 0 -28 -13 -60 -92 -43 -109 -97 -210 -115
-216 -16 -5 -10 63 15 183 18 82 12 131 -16 140 -24 8 -40 -1 -40 -21 0 -19
-7 -18 -37 6 -38 29 -67 25 -107 -16 -43 -45 -63 -87 -81 -172 -21 -95 -19
-126 8 -158 38 -43 81 -38 129 16 l38 43 11 -31 c12 -36 57 -59 86 -44 28 15
47 41 84 110 18 34 35 62 39 62 3 0 4 -33 2 -74 -4 -67 -2 -75 19 -89 38 -27
55 -8 61 67 7 78 40 138 121 213 48 44 52 46 55 26 2 -12 -4 -50 -13 -85 -25
-100 -36 -194 -25 -223 7 -19 17 -25 39 -25 38 0 77 34 142 121 29 38 53 69
54 69 2 0 1 -26 -2 -58 -8 -88 31 -152 91 -152 30 0 100 66 147 138 l49 77 0
-43 c0 -51 19 -92 56 -121 53 -42 78 -27 185 117 54 72 54 72 63 45 13 -43 36
-63 78 -69 40 -7 48 -23 22 -45 -17 -14 -54 -82 -54 -99 0 -20 41 -50 69 -50
64 0 125 92 102 152 -11 31 -44 54 -99 73 -28 10 -38 19 -40 39 -5 37 14 66
45 66 14 0 48 14 76 31 27 17 61 35 75 40 23 9 24 8 19 -23 -4 -18 -9 -90 -13
-159 -5 -106 -4 -130 10 -157 16 -32 53 -49 80 -39 24 10 93 103 152 208 31
54 58 99 59 99 2 0 20 -10 41 -22 l36 -21 -5 -70 c-8 -113 19 -177 74 -177 33
0 105 76 138 145 17 36 33 65 36 65 3 0 3 -26 -1 -58 -6 -53 -4 -61 18 -87 39
-44 82 -39 130 15 l38 43 11 -31 c12 -36 57 -59 86 -44 28 15 47 41 84 111
l34 63 7 -57 c9 -69 33 -113 75 -138 31 -18 33 -18 77 1 29 13 57 37 80 69 42
56 116 201 116 226 0 38 -28 13 -63 -58 -67 -136 -131 -207 -172 -191 -15 5
-17 19 -13 105 4 98 4 99 49 167 53 79 119 238 119 287 0 41 -25 77 -53 77
-12 0 -37 -9 -55 -20z m47 -109 c-28 -104 -103 -237 -84 -150 17 79 56 202 73
227 l17 26 3 -28 c2 -16 -2 -50 -9 -75z m-1629 -207 c0 -23 -9 -47 -27 -70
-34 -42 -56 -45 -47 -6 25 99 74 150 74 76z m274 -8 c-16 -26 -34 -34 -34 -17
0 4 10 21 22 36 26 34 37 17 12 -19z m476 27 c0 -23 -17 -49 -26 -41 -9 10 4
58 16 58 6 0 10 -8 10 -17z m-1880 -28 c10 -12 11 -32 2 -95 -13 -89 -26 -121
-70 -168 -43 -46 -62 -42 -62 11 0 49 35 198 56 240 16 31 54 37 74 12z m2350
0 c10 -12 11 -32 2 -95 -13 -89 -26 -121 -70 -168 -43 -46 -62 -42 -62 11 0
49 35 198 56 240 16 31 54 37 74 12z"/>
<path d="M5608 5706 c-36 -17 -63 -84 -83 -202 -10 -60 -20 -111 -22 -113 -2
-3 -14 6 -27 18 -32 30 -78 35 -109 10 -14 -10 -31 -19 -39 -20 -7 0 -38 -34
-68 -76 -66 -90 -141 -173 -158 -173 -20 0 -26 29 -16 78 8 41 14 50 51 70 23
13 51 38 63 57 44 71 18 153 -44 141 -36 -7 -90 -57 -107 -97 -11 -28 -29 -39
-29 -18 0 5 -5 7 -11 3 -11 -6 -90 -169 -103 -211 -4 -11 -14 -27 -22 -34 -13
-11 -15 -9 -10 12 3 13 10 68 17 122 12 93 12 99 -8 125 -12 17 -31 28 -50 30
-33 3 -64 -26 -118 -111 -34 -52 -49 -60 -41 -19 21 92 0 142 -59 142 -40 0
-73 -34 -117 -120 l-33 -65 -5 78 c-4 67 -8 82 -29 98 -27 22 -40 24 -45 7 -3
-7 -7 -78 -10 -158 -6 -166 1 -195 48 -195 26 0 30 5 61 95 38 112 57 154 85
195 l20 30 0 -35 c0 -19 -7 -66 -15 -105 -21 -97 -19 -141 5 -165 11 -11 26
-20 34 -20 8 0 35 39 61 88 59 108 126 212 138 212 5 0 7 -7 4 -15 -4 -8 -12
-70 -18 -139 -14 -140 -8 -169 37 -180 40 -10 72 27 119 136 l40 93 5 -55 c6
-64 29 -103 71 -120 44 -19 68 -3 140 92 34 46 64 85 66 87 11 15 10 -12 -2
-54 -23 -76 -20 -102 19 -141 55 -55 94 -43 147 44 24 38 39 41 39 8 0 -33 46
-76 81 -76 37 0 90 52 129 128 l29 57 1 -76 c0 -78 15 -109 51 -109 26 0 96
85 138 168 12 23 24 42 26 42 3 0 4 -32 4 -70 -1 -50 4 -77 15 -96 23 -35 62
-48 98 -33 31 13 109 94 131 137 28 53 52 92 58 92 4 0 3 -17 -2 -37 -5 -21
-9 -68 -9 -104 0 -68 16 -99 52 -99 18 0 73 60 106 116 13 21 35 57 48 79 l25
40 -6 -80 c-5 -81 -3 -89 28 -114 15 -12 20 -11 37 4 15 14 20 31 20 69 0 60
22 107 88 184 43 50 79 79 88 70 2 -3 -7 -58 -21 -124 -38 -182 -33 -224 25
-224 20 0 42 16 81 58 30 31 64 71 76 87 l22 30 -1 -57 c-1 -44 3 -63 18 -79
45 -50 90 -43 143 23 l24 30 14 -30 c18 -38 63 -58 92 -43 36 20 130 197 138
262 8 54 -14 58 -34 7 -30 -77 -104 -218 -114 -218 -14 0 -11 68 7 153 19 93
16 156 -9 171 -14 9 -21 7 -35 -11 -17 -22 -17 -22 -42 -3 -45 35 -70 26 -141
-49 -36 -38 -84 -100 -107 -137 -49 -82 -88 -131 -96 -123 -3 3 -1 32 4 65 13
78 13 210 0 235 -24 44 -98 13 -159 -67 -18 -24 -37 -44 -42 -44 -5 0 -9 20
-9 43 0 48 -25 81 -57 75 -13 -2 -20 -15 -24 -48 -6 -49 -94 -219 -135 -260
l-24 -25 0 30 c0 17 7 66 15 110 19 106 19 164 -1 186 -14 16 -14 20 1 43 29
44 3 99 -40 82 -15 -5 -17 -15 -12 -61 3 -32 1 -57 -4 -61 -6 -3 -8 -13 -4
-22 3 -8 -5 -32 -19 -52 -13 -20 -36 -60 -50 -89 -55 -107 -122 -181 -166
-181 -5 0 -10 18 -10 40 0 42 46 290 56 299 10 10 24 -24 24 -61 0 -43 22 -52
40 -17 24 43 -21 119 -71 119 -19 0 -69 -47 -69 -66 0 -6 -13 -24 -28 -41 -16
-16 -50 -71 -77 -121 -27 -50 -59 -102 -72 -114 l-23 -21 0 24 c0 13 7 65 15
114 19 116 19 164 -1 186 -14 16 -14 20 1 43 29 44 3 99 -40 82 -15 -5 -17
-15 -12 -60 3 -30 2 -57 -1 -61 -4 -3 -7 -21 -9 -38 -3 -62 -142 -297 -175
-297 -24 0 12 276 42 315 10 14 45 119 60 182 18 77 -14 117 -72 89z m37 -88
c-4 -24 -13 -56 -20 -73 -13 -30 -13 -29 -14 23 -1 54 11 92 30 92 7 0 8 -15
4 -42z m-457 -196 c2 -24 -5 -40 -32 -69 -19 -21 -37 -35 -41 -31 -8 8 20 105
36 125 18 21 34 10 37 -25z m1922 -16 c11 -29 -10 -157 -33 -201 -22 -44 -73
-89 -91 -82 -9 4 -16 18 -16 32 0 40 48 226 65 252 21 31 62 31 75 -1z m-1633
-25 c21 -27 14 -70 -19 -133 -33 -62 -81 -118 -100 -118 -16 0 -3 114 20 180
41 115 39 112 64 99 13 -7 28 -19 35 -28z"/>
</g>
</svg>
