<?xml version="1.0" standalone="no"?>
<!DOCTYPE svg PUBLIC "-//W3C//DTD SVG 20010904//EN"
 "http://www.w3.org/TR/2001/REC-SVG-20010904/DTD/svg10.dtd">
<svg version="1.0" xmlns="http://www.w3.org/2000/svg"
 width="1024.000000pt" height="1024.000000pt" viewBox="0 0 1024.000000 1024.000000"
 preserveAspectRatio="xMidYMid meet">

<g transform="translate(0.000000,1024.000000) scale(0.100000,-0.100000)"
fill="#000000" stroke="none">
<path d="M0 5120 l0 -5120 5120 0 5120 0 0 5120 0 5120 -5120 0 -5120 0 0
-5120z m5805 3860 c690 -82 1318 -367 1815 -824 436 -401 708 -845 880 -1435
54 -187 73 -284 89 -455 14 -144 15 -1953 1 -2136 -26 -342 -115 -679 -274
-1035 -170 -381 -413 -708 -733 -986 -536 -466 -1047 -701 -1743 -799 -238
-34 -672 -31 -900 6 -206 32 -578 136 -759 211 -636 263 -1117 663 -1518 1263
-273 408 -424 813 -515 1380 -23 143 -23 157 -23 950 0 716 2 819 18 932 75
538 265 1055 538 1463 274 410 582 714 1000 988 298 196 575 316 919 401 183
45 283 62 440 75 69 6 141 13 160 15 64 8 514 -3 605 -14z"/>
<path d="M5280 8824 c-289 -33 -667 -136 -965 -264 -605 -259 -1128 -720
-1509 -1329 -146 -233 -245 -439 -351 -724 -32 -86 -62 -152 -66 -146 -5 8 -8
7 -12 -2 -4 -8 -4 0 -1 16 4 20 3 26 -4 17 -7 -11 -10 -11 -15 3 -5 11 -3 14
5 9 8 -5 9 -2 5 10 -4 10 -7 21 -7 24 0 4 -5 0 -11 -8 -14 -20 -11 -9 36 149
97 326 222 595 410 881 106 162 179 256 322 414 326 360 770 673 1171 826 114
44 143 61 62 36 -263 -80 -713 -340 -980 -565 -384 -324 -704 -744 -884 -1163
-181 -419 -265 -761 -296 -1198 -13 -187 -13 -1191 0 -1380 19 -284 65 -541
140 -790 122 -403 332 -787 624 -1140 151 -183 408 -419 616 -567 434 -309
1002 -516 1569 -573 133 -13 459 -13 592 0 154 16 431 66 546 99 449 129 901
378 1245 685 116 104 303 297 385 397 158 194 321 480 427 749 55 141 85 242
130 447 69 309 69 322 74 1383 4 1018 2 1091 -44 1340 -81 443 -307 942 -584
1286 -228 284 -506 528 -805 707 -360 215 -682 325 -1090 372 -160 18 -570 18
-735 -1z m731 -49 c379 -44 742 -166 1064 -356 97 -57 307 -212 345 -255 14
-15 -13 2 -60 38 -88 68 -239 168 -253 168 -5 0 -5 -5 -1 -11 5 -8 1 -8 -14 0
-12 6 -24 17 -28 24 -5 8 -2 7 9 -2 10 -8 20 -11 23 -8 9 9 -36 29 -53 23 -8
-3 -65 17 -127 44 -114 51 -160 65 -96 30 50 -27 33 -24 -62 11 -380 140 -801
204 -1184 179 -425 -27 -797 -118 -1184 -290 -227 -100 -382 -188 -588 -332
-234 -164 -385 -300 -546 -492 -156 -187 -176 -219 -70 -109 225 231 485 454
687 587 519 342 1079 534 1685 577 612 43 1349 -169 1811 -520 44 -34 83 -67
87 -74 8 -13 -14 2 -52 36 -12 10 -29 20 -39 21 -9 1 -21 9 -26 17 -5 8 -9 11
-9 7 0 -4 -33 13 -74 37 -100 59 -139 79 -132 66 4 -6 1 -11 -6 -11 -7 0 20
-18 61 -40 126 -67 98 -59 -53 15 -145 71 -188 97 -82 50 66 -29 63 -29 63
-12 0 6 -10 13 -21 13 -12 1 -70 22 -130 48 -60 25 -111 45 -113 42 -3 -3 29
-18 106 -47 13 -5 22 -12 19 -15 -3 -2 -45 11 -94 29 -217 83 -521 154 -794
187 -128 15 -486 12 -635 -5 -530 -62 -1069 -268 -1523 -583 -181 -126 -295
-224 -513 -441 -162 -162 -220 -229 -335 -383 -168 -226 -238 -336 -354 -561
-216 -417 -343 -858 -371 -1284 -29 -445 16 -814 144 -1173 153 -431 367 -764
693 -1080 246 -238 472 -375 767 -464 179 -54 294 -70 471 -63 252 10 424 58
721 202 216 106 235 117 1200 715 906 562 1393 976 1775 1510 45 63 84 117 86
119 6 7 -25 -68 -43 -103 -8 -16 -17 -45 -19 -65 -9 -72 -159 -301 -336 -513
-96 -114 -359 -373 -488 -480 -266 -220 -576 -448 -945 -693 -1156 -768 -1436
-902 -1900 -910 -110 -2 -137 -1 -85 4 l75 7 -55 3 c-42 2 -49 5 -30 10 20 6
13 9 -35 15 -113 13 -132 18 -110 27 17 6 15 8 -10 10 -16 1 -41 1 -55 0 -20
-1 -22 0 -10 10 12 8 8 9 -15 5 -23 -5 -27 -4 -15 5 12 8 7 10 -20 6 -19 -3
-28 -3 -20 0 10 4 4 10 -20 20 l-35 13 35 -5 c31 -5 32 -4 11 5 -14 6 -36 8
-50 5 -14 -3 -33 -1 -41 5 -13 9 -13 10 0 11 8 0 2 7 -15 14 -42 19 -20 18 31
-1 33 -13 49 -14 71 -5 l28 11 -30 -5 c-40 -7 -115 22 -94 37 11 8 10 9 -4 4
-41 -13 -72 -18 -59 -8 11 7 10 10 -3 16 -26 10 -42 7 -25 -5 29 -20 -29 2
-128 49 -53 25 -100 45 -104 44 -5 -1 -7 4 -5 11 1 6 -5 12 -14 11 -9 -1 -16
5 -16 12 0 7 3 11 7 9 4 -2 7 2 7 10 0 10 -4 12 -12 5 -7 -6 -21 -7 -31 -4
-17 6 -17 5 1 -10 20 -17 20 -17 -3 -6 -22 11 -23 13 -7 30 16 18 15 19 -17
36 -18 9 -55 32 -81 51 -27 19 -51 32 -54 29 -5 -5 120 -89 147 -98 9 -3 10
-7 3 -11 -6 -4 -17 -1 -25 6 -7 7 -31 24 -53 37 -22 14 -57 40 -78 59 -30 27
-40 31 -51 22 -11 -10 -14 -9 -12 3 1 9 6 19 11 23 4 4 5 2 1 -4 -8 -14 0 -18
8 -4 3 4 -4 17 -17 27 -12 11 -16 12 -10 4 10 -13 8 -18 -8 -28 -10 -7 -18 -9
-17 -4 2 4 -26 36 -62 71 -36 35 -58 58 -49 52 9 -6 20 -7 24 -3 5 4 5 1 0 -7
-5 -10 -4 -12 4 -7 6 4 9 12 5 17 -3 5 -9 7 -14 4 -5 -3 -11 -1 -15 5 -4 6
-11 8 -16 4 -14 -8 -40 16 -32 30 3 6 3 8 -2 4 -4 -4 -13 -2 -19 5 -55 57
-292 342 -331 397 -8 12 -7 13 5 5 14 -9 14 -9 0 5 -8 9 -16 22 -18 30 -2 8
-12 24 -22 35 -50 55 -165 259 -233 410 -66 149 -168 458 -169 513 0 12 -5 22
-10 22 -5 0 -7 4 -4 8 2 4 -4 57 -14 117 -31 185 -44 369 -44 630 -1 138 -3
225 -7 195 l-6 -55 -3 70 -4 70 -6 -80 -7 -80 -2 120 c-2 66 -3 145 -4 175 l0
55 -13 -50 -14 -50 6 60 c32 342 187 872 379 1297 121 269 345 631 516 833
103 122 392 401 504 486 339 258 715 442 1143 559 168 46 367 86 520 105 151
18 538 18 693 0z m149 -399 c438 -70 876 -222 1155 -402 126 -81 263 -184 310
-235 34 -35 28 -32 -36 20 -41 33 -79 61 -83 61 -4 0 -14 7 -23 15 -8 8 -19
12 -25 9 -7 -4 -8 -2 -4 4 4 7 2 12 -3 12 -6 0 -13 0 -16 0 -2 0 -16 12 -30
26 -14 14 -29 23 -34 19 -5 -3 -33 8 -61 25 -28 17 -49 26 -46 21 11 -17 96
-62 106 -56 6 4 9 1 8 -6 -2 -6 3 -14 11 -17 9 -3 11 0 6 9 -5 8 -4 10 0 6 5
-4 10 -14 11 -23 2 -13 0 -13 -19 -1 -131 84 -331 181 -359 174 -10 -3 -16 -1
-13 3 7 12 -32 23 -46 14 -7 -4 -9 -3 -6 4 4 6 -12 17 -40 26 -54 19 -64 20
-43 5 12 -9 12 -10 -3 -5 -11 3 -30 9 -44 12 -19 5 -22 9 -11 16 9 7 7 8 -8 3
-12 -3 -70 8 -130 24 -328 88 -671 113 -1057 76 -652 -62 -1310 -334 -1838
-759 -344 -277 -693 -711 -898 -1116 -325 -641 -429 -1269 -320 -1930 79 -477
250 -831 555 -1150 231 -241 439 -381 699 -469 195 -65 263 -76 480 -75 171 0
202 3 310 28 149 34 254 69 415 137 123 52 500 239 675 336 50 27 142 78 205
113 368 203 838 497 1164 729 359 256 676 536 976 866 35 39 58 63 52 54 -7
-9 -8 -20 -4 -24 4 -5 1 -5 -7 0 -9 5 -12 3 -9 -6 3 -8 -6 -30 -19 -49 -25
-38 -30 -55 -11 -44 7 4 8 3 4 -5 -4 -6 -11 -9 -15 -7 -4 3 -18 -8 -30 -24
-25 -35 -18 -40 11 -7 16 18 16 16 -3 -13 -12 -19 -34 -46 -48 -60 -15 -14
-20 -20 -12 -15 19 12 -76 -110 -98 -127 -9 -7 -5 1 9 17 l25 30 -27 -24 c-15
-13 -25 -28 -22 -32 7 -13 -202 -234 -323 -341 -267 -237 -716 -566 -1053
-772 -25 -15 -74 -46 -110 -68 -36 -23 -121 -76 -190 -118 -69 -42 -222 -138
-340 -212 -253 -158 -510 -308 -647 -376 -281 -141 -525 -217 -670 -208 -47 3
-57 1 -33 -4 35 -8 -17 -5 -190 10 -84 7 -84 7 -25 10 l60 3 -80 8 c-44 5
-100 13 -125 18 -43 10 -43 10 20 6 64 -4 63 -4 -25 12 -66 12 -83 18 -65 23
23 6 22 7 -12 14 -20 3 -49 4 -65 1 -24 -5 -25 -4 -8 5 16 8 13 9 -15 5 -27
-4 -31 -2 -20 6 12 8 8 9 -15 5 -17 -4 -25 -3 -18 2 9 5 -4 14 -38 26 -27 10
-48 20 -46 22 2 3 17 0 32 -6 15 -6 30 -8 32 -6 9 8 -106 38 -118 30 -7 -4 -9
-3 -6 3 4 6 0 14 -9 17 -23 9 -36 7 -29 -4 4 -7 -2 -7 -18 -1 -41 16 -167 81
-167 86 0 3 18 -4 41 -15 23 -12 43 -19 46 -16 3 2 -18 16 -46 30 -51 26 -67
40 -33 30 14 -5 14 -3 -3 11 -11 9 -19 21 -17 27 2 6 -4 8 -12 5 -8 -3 -22 1
-33 8 -25 20 -38 18 -22 -2 13 -16 12 -17 -3 -4 -10 7 -16 17 -13 21 3 4 -11
20 -31 35 -19 15 -33 30 -30 33 7 7 -13 32 -26 32 -6 0 -4 -8 3 -17 7 -10 -3
-3 -24 16 -20 19 -35 37 -32 39 3 3 0 11 -6 18 -7 8 -6 14 2 20 8 5 9 3 4 -6
-5 -8 -4 -11 3 -6 7 4 10 -1 7 -14 -3 -13 0 -18 7 -14 7 5 8 2 3 -6 -6 -9 -4
-11 5 -5 9 6 11 4 5 -5 -5 -8 -4 -11 2 -7 14 9 65 -32 57 -45 -4 -7 -2 -8 4
-4 18 11 37 -4 21 -16 -11 -7 -10 -8 4 -4 10 3 16 2 12 -4 -3 -5 0 -7 8 -4 8
3 18 1 22 -5 3 -6 0 -11 -7 -11 -10 0 -10 -2 1 -9 8 -5 21 -7 30 -4 14 4 14 3
1 -7 -13 -10 -12 -11 3 -6 10 3 16 2 13 -3 -3 -5 2 -8 12 -7 9 0 16 -4 15 -11
-2 -8 4 -10 14 -6 10 4 14 2 9 -5 -3 -6 2 -15 11 -21 14 -8 15 -11 3 -11 -8 0
-2 -8 13 -16 16 -9 31 -13 35 -10 3 3 0 6 -7 6 -7 0 -9 5 -6 10 4 6 16 8 28 5
12 -4 -15 16 -60 44 -104 63 -194 131 -188 141 3 4 -3 14 -12 21 -12 10 -14
10 -9 2 12 -20 -9 -15 -29 7 -10 11 -15 20 -10 20 4 0 2 7 -5 15 -7 8 -16 12
-21 10 -4 -3 -61 48 -125 112 -65 65 -103 102 -85 81 18 -20 30 -41 26 -47 -3
-6 -3 -11 2 -10 22 4 35 -2 30 -15 -4 -9 -1 -13 7 -10 7 3 21 -4 31 -16 11
-12 13 -20 6 -20 -7 0 -9 -5 -5 -11 5 -8 9 -8 14 1 5 9 9 9 14 1 4 -6 1 -11
-6 -11 -10 0 -9 -3 2 -9 8 -6 18 -7 24 -4 5 3 6 1 2 -5 -4 -7 -11 -12 -15 -12
-18 0 -176 172 -173 188 3 13 1 14 -11 3 -12 -9 -17 -9 -23 0 -4 7 -3 9 2 6 6
-3 15 3 22 13 9 15 8 21 -5 32 -9 7 -19 13 -22 13 -3 0 -6 5 -6 12 0 15 -13
28 -28 28 -7 0 -12 7 -12 15 0 18 -40 72 -47 65 -3 -3 -5 1 -5 8 0 18 -54 97
-63 92 -4 -3 -7 3 -6 13 0 9 -5 16 -12 14 -8 -1 -11 2 -8 7 9 14 -84 182 -96
175 -7 -4 -8 -2 -4 5 10 16 -73 213 -87 204 -6 -3 -7 -1 -3 6 4 6 0 18 -8 27
-9 9 -14 20 -10 25 3 6 1 15 -4 22 -11 13 -12 17 -12 48 0 12 -4 17 -11 13 -7
-4 -9 0 -6 12 3 11 -2 53 -13 94 -10 41 -19 66 -20 55 -1 -11 -8 3 -16 30 -15
55 -17 81 -4 50 10 -25 2 77 -10 120 -7 23 -8 17 -5 -25 l4 -55 -10 49 c-7 34
-7 64 1 98 5 27 10 59 9 71 -1 12 -6 -5 -13 -38 l-12 -60 -12 91 c-7 50 -13
110 -14 135 l-1 44 -7 -55 c-5 -37 -8 6 -10 135 l-4 190 -6 -165 -6 -165 -4
210 c-4 205 -4 207 -10 85 l-6 -125 -2 115 c-4 237 32 481 114 764 69 240 138
424 219 591 200 410 425 725 750 1048 399 399 880 685 1430 852 138 42 419
100 550 114 139 15 570 6 695 -13z m120 -231 c533 -70 1008 -265 1357 -559 95
-80 263 -265 334 -366 36 -52 27 -43 -89 92 -37 42 -72 77 -78 77 -6 1 -21 13
-35 28 -13 14 -17 22 -9 18 13 -8 13 -7 1 8 -15 18 -26 23 -16 7 10 -16 -7
-12 -27 7 -20 18 -25 38 -7 27 7 -4 -7 12 -30 36 -23 24 -45 40 -49 36 -4 -4
8 -21 26 -37 57 -51 34 -41 -45 21 -42 32 -81 58 -87 57 -6 -1 -10 3 -11 10 0
13 -38 44 -75 62 l-25 12 23 -18 c83 -65 75 -64 -33 5 -79 51 -230 128 -260
134 -11 1 -22 5 -25 8 -13 13 -63 30 -72 24 -7 -5 -8 -2 -3 6 6 9 2 10 -15 5
-14 -5 -20 -3 -16 3 4 6 -2 8 -16 4 -16 -4 -19 -2 -13 8 5 8 4 11 -3 6 -15 -9
-63 4 -56 15 3 5 -1 6 -9 3 -8 -3 -53 6 -100 21 -211 64 -448 91 -736 82 -230
-7 -337 -22 -601 -84 -475 -111 -827 -264 -1239 -538 -173 -115 -289 -210
-473 -386 -176 -167 -257 -259 -408 -462 -146 -197 -217 -313 -335 -552 -141
-285 -217 -499 -261 -741 -27 -142 -27 -554 -1 -704 60 -340 191 -624 411
-887 89 -107 172 -186 291 -273 212 -156 391 -233 670 -286 145 -28 413 -24
585 9 447 87 1206 436 1990 915 487 298 914 624 1198 915 67 70 122 124 122
121 0 -3 -18 -29 -40 -59 -22 -30 -39 -60 -38 -67 2 -7 -4 -13 -12 -13 -8 0
-14 -6 -13 -13 2 -7 -3 -11 -10 -9 -6 1 -11 -6 -11 -15 1 -10 -2 -16 -5 -15
-4 1 -59 -53 -122 -121 -134 -145 -283 -279 -469 -423 -387 -300 -849 -599
-1350 -873 -69 -38 -179 -99 -245 -136 -145 -81 -536 -278 -649 -327 -231 -99
-443 -164 -547 -167 -31 0 -55 -4 -53 -7 2 -3 -37 -9 -86 -11 -109 -7 -237 1
-218 13 8 5 -5 7 -32 5 -25 -2 -36 -1 -25 1 12 3 -20 15 -79 29 -104 26 -139
41 -71 31 l40 -6 -35 11 c-57 17 -141 50 -137 54 2 2 30 -5 62 -16 32 -11 65
-20 74 -20 9 1 -15 11 -54 24 -38 13 -101 37 -138 54 -38 17 -78 30 -90 29
-14 -1 -21 3 -19 12 2 8 -3 11 -11 8 -7 -3 -14 1 -14 8 0 10 6 11 24 2 15 -6
19 -13 12 -17 -6 -4 2 -7 18 -7 15 0 37 -3 48 -7 11 -4 -16 11 -59 33 -44 22
-84 45 -89 50 -5 5 -16 7 -23 4 -12 -4 -12 -8 -2 -22 12 -14 11 -14 -4 -3 -9
8 -21 11 -26 9 -4 -3 -8 5 -8 18 0 15 4 21 14 18 11 -5 11 -7 0 -14 -9 -6 -9
-9 -1 -9 20 0 24 19 6 28 -21 11 -46 4 -37 -10 4 -6 -1 -6 -14 1 -14 7 -19 19
-17 41 1 17 -2 33 -8 37 -6 4 -7 1 -2 -7 5 -8 3 -11 -6 -8 -8 3 -13 10 -12 16
1 5 -5 16 -15 24 -15 12 -16 11 -3 -5 7 -9 9 -17 3 -17 -12 0 -34 25 -27 32 3
3 -3 11 -12 19 -16 13 -17 12 -4 -3 16 -22 -1 -24 -19 -3 -7 8 -9 15 -5 15 5
0 1 8 -8 18 -10 10 -15 21 -12 24 3 3 -3 11 -12 19 -16 13 -17 12 -4 -3 7 -10
9 -18 4 -18 -13 0 -45 35 -38 41 3 3 -12 21 -32 40 -21 19 -29 24 -19 12 11
-13 16 -23 11 -23 -4 0 -2 -7 5 -15 10 -12 10 -15 -1 -15 -8 0 -1 -11 16 -24
16 -13 34 -22 39 -19 5 4 6 1 2 -5 -4 -8 -2 -10 7 -6 8 3 18 1 22 -5 3 -6 0
-11 -7 -11 -7 0 -2 -9 12 -20 14 -11 20 -20 13 -20 -13 0 -12 -17 2 -40 8 -13
7 -13 -8 -1 -10 8 -15 16 -12 19 3 3 -2 14 -12 24 -9 10 -12 18 -8 18 4 0 0 9
-10 20 -20 22 -40 27 -29 7 4 -6 -2 -3 -14 7 -12 11 -20 22 -17 24 7 8 -56 72
-65 67 -9 -6 -35 23 -35 39 0 6 -3 11 -7 11 -3 0 -18 11 -32 24 -14 14 -26 21
-26 17 0 -13 -28 14 -53 48 -15 22 -16 27 -4 17 9 -7 17 -9 17 -3 0 12 -25 34
-32 27 -3 -3 -11 3 -19 12 -13 16 -12 17 3 4 10 -7 18 -9 18 -3 0 13 -25 33
-32 26 -3 -3 -16 9 -29 27 -13 18 -17 29 -10 24 9 -5 12 -3 9 6 -3 8 -10 13
-16 12 -10 -2 -33 25 -57 66 -6 10 -4 12 5 6 8 -5 11 -3 8 6 -3 8 -10 14 -15
14 -6 0 -15 4 -20 9 -5 5 -3 6 5 2 18 -11 15 4 -13 53 -29 49 -32 64 -9 35 13
-16 15 -16 10 -1 -7 24 1 21 15 -4 8 -15 8 -19 0 -15 -16 10 -13 -7 5 -30 14
-17 15 -17 10 -1 -4 11 -2 16 5 12 6 -4 8 -14 5 -22 -6 -15 22 -79 31 -70 2 3
0 14 -6 25 -6 12 -11 24 -11 29 1 4 8 -4 16 -20 8 -15 12 -32 9 -37 -10 -17 6
-34 17 -19 7 10 8 8 3 -7 -3 -13 1 -26 10 -34 9 -7 13 -21 10 -31 -3 -9 0 -21
6 -25 8 -5 10 -2 7 8 -4 8 -2 21 4 29 8 11 9 10 4 -4 -4 -12 -2 -16 6 -11 7 4
8 3 4 -4 -4 -7 -4 -17 0 -23 4 -8 9 -7 15 2 9 14 -15 54 -33 54 -6 0 -13 6
-16 14 -3 8 0 11 6 7 5 -3 -20 45 -57 106 -36 62 -65 116 -64 120 2 5 -2 8 -8
8 -5 0 -7 5 -4 10 3 6 2 10 -3 10 -14 0 -35 57 -26 71 5 8 3 9 -6 4 -9 -5 -10
-2 -6 13 9 27 -9 38 -24 15 -11 -17 -11 -17 -6 0 3 9 9 25 12 35 5 14 4 13
-10 -3 -16 -19 -16 -19 -6 8 7 20 7 26 -1 21 -8 -4 -9 1 -5 17 7 24 7 24 -8
-1 -9 -14 -15 -20 -16 -13 0 6 -3 20 -6 30 -5 15 -4 16 6 3 10 -13 11 -12 6 3
-3 10 -6 24 -6 30 0 8 -3 8 -8 -1 -6 -8 -14 7 -25 45 -23 78 -67 266 -68 289
0 18 -1 18 -10 -1 -6 -14 -8 -6 -4 30 3 38 2 45 -5 30 -8 -16 -9 -13 -6 17 3
22 0 38 -6 40 -17 6 -23 468 -9 599 66 588 285 1131 659 1638 185 250 474 534
737 723 166 119 481 290 705 381 290 118 691 213 996 237 140 11 449 3 584
-15z m655 -75 c13 -6 15 -9 5 -9 -8 0 -22 4 -30 9 -18 12 -2 12 25 0z m556
-87 c13 -16 12 -17 -3 -4 -10 7 -18 15 -18 17 0 8 8 3 21 -13z m-1078 -250
c-7 -2 -19 -2 -25 0 -7 3 -2 5 12 5 14 0 19 -2 13 -5z m50 -10 c-7 -2 -19 -2
-25 0 -7 3 -2 5 12 5 14 0 19 -2 13 -5z m50 -10 c-7 -2 -19 -2 -25 0 -7 3 -2
5 12 5 14 0 19 -2 13 -5z m153 -37 c206 -58 411 -149 585 -258 85 -54 222
-158 234 -179 4 -5 -32 19 -79 56 -214 165 -501 302 -846 403 -19 5 -30 10
-24 11 5 1 64 -14 130 -33z m-608 7 c-16 -2 -40 -2 -55 0 -16 2 -3 4 27 4 30
0 43 -2 28 -4z m288 -33 c156 -27 334 -81 465 -139 62 -28 115 -48 119 -46 18
11 380 -200 380 -221 0 -3 -21 9 -47 27 -63 44 -225 139 -236 139 -4 0 -6 -4
-2 -10 3 -5 -45 15 -107 45 -219 104 -405 163 -633 201 -82 14 -154 27 -160
29 -19 9 111 -6 221 -25z m-243 13 c-7 -2 -21 -2 -30 0 -10 3 -4 5 12 5 17 0
24 -2 18 -5z m192 -92 c238 -45 412 -104 630 -211 333 -164 536 -342 833 -730
69 -91 165 -205 212 -254 47 -49 72 -80 56 -70 -16 10 -36 19 -44 20 -27 4
-101 86 -236 259 -323 413 -513 578 -857 744 -819 395 -1772 278 -2629 -322
-154 -108 -231 -171 -382 -316 -176 -169 -362 -385 -491 -570 -9 -14 -20 -22
-23 -18 -18 18 159 255 341 459 502 558 1165 924 1855 1023 151 22 593 14 735
-14z m1046 -348 c13 -16 12 -17 -3 -4 -10 7 -18 15 -18 17 0 8 8 3 21 -13z
m-1161 -18 c381 -47 708 -187 999 -428 94 -77 299 -281 401 -398 35 -40 -18
10 -119 114 -220 225 -460 417 -526 421 -19 1 -21 4 -12 15 9 11 9 13 0 8 -6
-4 -19 0 -27 9 -15 14 -20 11 -17 -9 1 -5 -3 -6 -9 -2 -6 3 -8 10 -6 14 8 13
-8 26 -68 55 -90 43 -188 78 -203 72 -8 -3 -11 -1 -8 5 4 6 -3 8 -22 4 -19 -5
-24 -4 -15 3 11 7 8 11 -13 16 -14 4 -30 4 -35 1 -5 -3 -35 1 -67 9 -110 28
-308 58 -393 58 -62 0 -76 3 -50 8 20 4 -42 7 -140 7 -171 -1 -172 -1 -50 -7
l125 -5 -170 -7 c-167 -8 -398 -42 -441 -67 -32 -18 -303 -83 -315 -75 -8 5
-9 3 -4 -6 6 -10 3 -12 -14 -7 -13 3 -20 3 -17 -1 12 -11 -135 -64 -148 -53
-9 8 -58 -13 -167 -68 -201 -103 -358 -191 -339 -191 8 0 -39 -35 -105 -78
-147 -96 -145 -94 -145 -89 0 2 18 16 40 31 23 15 38 31 35 36 -3 5 0 12 6 16
8 4 9 3 5 -4 -4 -7 -5 -12 -2 -12 11 0 156 93 152 98 -5 4 -43 -16 -99 -53
-15 -9 -27 -15 -27 -12 0 3 42 32 93 64 447 288 835 439 1292 503 168 23 456
25 625 5z m-133 -160 c280 -37 546 -124 793 -261 96 -53 285 -178 296 -196 4
-6 -6 -2 -23 10 -17 12 -35 22 -40 22 -4 0 -42 23 -83 50 -151 101 -400 215
-560 257 -41 11 -121 29 -177 39 -56 10 -100 21 -98 24 2 3 -15 6 -38 6 -23 0
-96 6 -162 13 -77 9 -168 12 -255 8 -438 -20 -819 -135 -1269 -384 -124 -69
-360 -223 -473 -309 -70 -53 -58 -36 17 26 64 51 83 79 31 45 -14 -10 -26 -15
-26 -13 0 12 211 148 220 143 10 -6 80 31 80 42 0 2 -15 -5 -34 -16 -18 -12
-36 -21 -40 -21 -60 0 420 261 641 349 185 73 434 138 618 160 50 6 101 13
115 15 71 10 362 4 467 -9z m643 -5 c8 -5 11 -10 5 -10 -5 0 -17 5 -25 10 -8
5 -10 10 -5 10 6 0 17 -5 25 -10z m65 -30 c3 -6 -1 -7 -9 -4 -18 7 -21 14 -7
14 6 0 13 -4 16 -10z m-686 -75 c468 -76 847 -265 1246 -621 66 -58 124 -114
129 -123 5 -9 -27 18 -72 59 -200 182 -351 292 -553 399 -128 67 -374 165
-396 157 -8 -3 -11 -1 -8 5 4 6 -3 7 -21 3 -21 -5 -25 -4 -19 6 6 10 4 12 -9
7 -10 -4 -35 -3 -55 2 -20 6 -70 13 -111 16 -41 3 -104 11 -140 16 -96 15
-212 28 -240 27 -23 0 -23 -1 5 -9 18 -5 -4 -6 -55 -2 -346 25 -612 -24 -975
-179 -154 -65 -211 -98 -194 -109 9 -7 4 -7 -15 -3 -20 5 -27 3 -22 -4 3 -6 1
-14 -5 -18 -8 -4 -9 -3 -5 4 9 15 5 15 -29 2 -16 -6 -23 -14 -19 -22 4 -6 3
-8 -4 -5 -15 10 -43 -3 -35 -16 3 -5 1 -7 -5 -4 -13 9 -43 -3 -37 -14 8 -12
-93 -61 -107 -53 -7 4 -8 3 -4 -4 8 -14 -30 -36 -46 -26 -6 4 -8 3 -5 -3 4 -6
-40 -41 -96 -78 -56 -37 -123 -85 -148 -106 -52 -43 -72 -51 -43 -16 l19 22
-22 -19 c-13 -10 -20 -22 -18 -26 6 -10 -18 -30 -44 -35 -32 -6 -41 -14 -34
-33 3 -9 3 -14 -2 -10 -4 4 -16 -3 -27 -15 -11 -12 -17 -16 -13 -9 18 36 -24
1 -114 -95 -56 -60 -101 -103 -101 -97 0 19 282 287 395 375 288 224 714 454
1035 558 105 33 314 81 418 96 139 19 484 19 601 0z m901 -51 c0 -2 -9 0 -20
6 -11 6 -20 13 -20 16 0 2 9 0 20 -6 11 -6 20 -13 20 -16z m-1067 -21 c-7 -2
-21 -2 -30 0 -10 3 -4 5 12 5 17 0 24 -2 18 -5z m70 -10 c-7 -2 -19 -2 -25 0
-7 3 -2 5 12 5 14 0 19 -2 13 -5z m-203 -48 c290 -32 629 -139 864 -272 208
-117 458 -300 602 -439 33 -33 44 -45 25 -28 -195 167 -341 270 -551 387 -143
80 -164 89 -357 163 -274 104 -463 142 -740 151 -184 6 -329 -4 -483 -33 -87
-17 -294 -68 -334 -84 -15 -5 -35 -10 -44 -10 -15 1 -15 2 1 11 33 20 253 91
352 114 226 54 428 66 665 40z m418 -2 c-10 -2 -26 -2 -35 0 -10 3 -2 5 17 5
19 0 27 -2 18 -5z m136 -33 c130 -42 258 -94 304 -125 21 -14 49 -28 62 -30
13 -2 40 -16 61 -30 21 -14 41 -25 44 -25 8 0 194 -125 225 -151 l25 -21 -25
14 c-203 120 -318 183 -430 236 -74 36 -138 69 -141 74 -3 5 -60 27 -125 48
-65 21 -113 39 -107 39 7 1 55 -13 107 -29z m-454 -85 c321 -53 634 -180 930
-378 83 -55 261 -199 300 -242 14 -15 -31 17 -100 72 -69 55 -154 120 -190
145 -62 43 -213 130 -225 129 -19 -3 -25 0 -19 11 4 6 3 8 -3 5 -6 -4 -57 14
-114 39 -151 67 -212 89 -362 128 -124 33 -197 46 -137 25 21 -7 19 -8 -10 -3
-295 45 -304 46 -480 41 -273 -9 -487 -53 -770 -159 -155 -58 -200 -80 -365
-177 -128 -75 -237 -149 -323 -219 -29 -23 -57 -40 -62 -37 -5 3 -12 0 -16 -6
-5 -8 -3 -9 7 -4 8 5 5 -1 -5 -14 -15 -16 -21 -18 -28 -9 -7 11 -12 5 -10 -13
1 -3 -6 -6 -13 -6 -21 0 -5 18 90 97 348 290 732 473 1161 555 74 15 179 30
232 35 131 12 396 4 512 -15z m1386 -17 l29 -33 -32 29 c-31 28 -38 36 -30 36
2 0 16 -15 33 -32z m-1491 -83 c404 -58 754 -202 1077 -443 102 -76 329 -273
363 -313 l20 -24 -25 20 c-14 11 -34 27 -45 37 -39 35 -83 68 -90 68 -4 0 -55
38 -113 83 -333 260 -630 407 -1005 496 -178 43 -535 55 -736 26 -195 -29
-451 -105 -633 -188 -223 -102 -540 -323 -738 -512 -111 -106 -155 -131 -81
-46 181 209 543 476 816 601 209 97 484 173 730 203 81 10 370 5 460 -8z
m1410 -25 c10 -11 16 -20 13 -20 -3 0 -13 9 -23 20 -10 11 -16 20 -13 20 3 0
13 -9 23 -20z m-4838 -192 c-3 -8 -6 -5 -6 6 -1 11 2 17 5 13 3 -3 4 -12 1
-19z m24 -55 c-12 -20 -14 -14 -5 12 4 9 9 14 11 11 3 -2 0 -13 -6 -23z m3360
-3 c218 -21 436 -81 648 -178 189 -86 230 -112 863 -540 170 -115 267 -166
408 -213 91 -31 101 -32 262 -33 l167 -1 -52 -19 c-42 -16 -78 -20 -187 -20
-218 0 -277 21 -780 282 -107 56 -242 122 -299 147 -224 99 -490 177 -721 211
-144 21 -485 15 -625 -10 -327 -60 -671 -210 -1232 -537 -280 -164 -515 -276
-667 -320 -91 -27 -302 -37 -405 -19 -40 7 -70 15 -67 18 3 3 44 4 92 3 152
-2 296 16 402 53 141 48 281 109 275 120 -4 5 -1 6 4 3 6 -4 27 4 46 17 19 13
38 22 41 18 3 -3 6 0 6 6 0 14 -10 15 -30 2 -18 -11 -33 9 -19 26 7 8 6 15 -2
20 -8 5 -9 3 -4 -6 6 -10 4 -12 -9 -7 -11 4 -15 3 -11 -4 4 -6 1 -10 -6 -8
-28 3 -40 -1 -33 -13 4 -7 3 -8 -4 -4 -6 4 -28 -1 -49 -10 -53 -23 -126 -35
-112 -18 5 6 22 15 37 19 43 11 372 190 564 306 476 290 806 434 1129 493 43
8 61 14 42 15 -53 2 -262 -38 -373 -70 -275 -81 -556 -224 -955 -487 -263
-173 -283 -184 -306 -171 -17 9 -18 13 -7 27 7 9 -3 5 -22 -10 -19 -15 -34
-32 -32 -38 1 -6 -2 -9 -8 -5 -6 4 -30 -9 -53 -28 -46 -37 -127 -90 -127 -83
0 3 19 19 43 35 23 17 62 49 87 72 42 38 40 37 -20 -8 -84 -64 -189 -126 -287
-169 -113 -49 -123 -41 -18 14 152 81 199 116 555 418 354 299 622 464 955
587 286 106 596 146 896 117z m2124 -194 c11 -11 6 -9 -10 5 -87 70 -138 116
-162 148 -21 29 72 -54 172 -153z m-3995 131 c0 -2 -10 -12 -22 -23 l-23 -19
19 23 c18 21 26 27 26 19z m3710 -162 c52 -52 92 -95 90 -95 -3 0 -48 43 -100
95 -52 52 -92 95 -90 95 3 0 48 -43 100 -95z m-4204 -7 c5 -7 3 -8 -6 -3 -10
6 -12 4 -7 -8 4 -10 2 -16 -6 -14 -7 1 -11 -5 -11 -14 1 -9 -5 -16 -12 -16
-12 0 -12 4 -1 21 7 12 17 27 21 34 9 15 13 15 22 0z m514 -82 c0 -2 -8 -10
-17 -17 -16 -13 -17 -12 -4 4 13 16 21 21 21 13z m3900 -104 c0 -7 -56 36 -75
59 -11 12 1 5 28 -16 26 -22 47 -41 47 -43z m-319 1 c13 -16 12 -17 -3 -4 -10
7 -18 15 -18 17 0 8 8 3 21 -13z m44 -43 c10 -11 16 -20 13 -20 -3 0 -13 9
-23 20 -10 11 -16 20 -13 20 3 0 13 -9 23 -20z m-1907 -47 c-32 -2 -84 -2
-115 0 -32 2 -6 3 57 3 63 0 89 -1 58 -3z m72 -38 c0 -68 -67 -162 -142 -199
-120 -60 -272 -5 -322 116 -22 53 -21 58 22 59 l37 2 -35 7 c-29 6 -22 8 40
10 64 3 69 4 30 9 -43 5 -42 5 25 11 39 4 132 7 208 8 l137 2 0 -25z m90 -388
c-78 -72 -154 -108 -240 -115 -49 -3 -70 -1 -70 7 0 6 -17 12 -37 12 -21 1 4
5 54 9 99 8 190 42 262 97 19 15 31 20 26 12 -5 -8 4 -2 20 14 15 15 31 25 34
21 3 -3 -19 -29 -49 -57z m-3476 13 c4 -25 3 -31 -4 -20 -5 8 -10 26 -10 39 0
32 6 24 14 -19z m3356 15 c0 -10 -57 -34 -95 -40 -33 -5 -28 -2 25 18 36 14
66 25 68 26 1 1 2 -1 2 -4z m255 -63 c-78 -75 -156 -124 -237 -149 -65 -20
-205 -23 -217 -5 -4 7 -21 17 -37 22 -21 6 -4 9 67 9 137 1 240 37 379 131 30
20 60 35 66 33 6 -2 17 3 24 12 7 8 15 15 19 15 3 0 -26 -31 -64 -68z m-2133
34 c16 -12 16 -14 -6 -24 -28 -13 -36 -8 -29 19 6 22 12 23 35 5z m2245 -26
c1 -13 -2 -18 -9 -14 -6 4 -8 3 -4 -4 3 -6 2 -13 -4 -17 -5 -3 -10 -11 -10
-17 0 -6 12 -1 28 12 15 13 -9 -13 -54 -56 -134 -131 -263 -195 -404 -202 -61
-3 -92 0 -115 11 -16 8 -52 23 -80 33 -30 11 -43 20 -32 22 29 6 19 17 -44 46
-33 15 -59 29 -57 31 2 2 42 -10 88 -28 79 -29 94 -31 215 -32 124 0 133 2
202 31 82 36 179 103 238 163 21 23 39 41 40 41 0 0 1 -9 2 -20z m-3730 -102
c-2 -18 -4 -4 -4 32 0 36 2 50 4 33 2 -18 2 -48 0 -65z m1571 37 c-3 -3 -9 2
-12 12 -6 14 -5 15 5 6 7 -7 10 -15 7 -18z m2262 5 c-5 -9 -16 -22 -24 -30 -9
-7 -16 -17 -16 -23 0 -6 12 0 28 13 15 13 -11 -15 -58 -60 -125 -123 -262
-209 -398 -250 -127 -39 -296 -18 -402 49 -29 18 -30 21 -10 16 22 -6 21 -4
-7 15 -37 25 -44 45 -12 37 25 -7 25 -6 -54 52 -32 24 -55 46 -53 49 3 2 19
-8 37 -22 47 -40 117 -73 215 -101 152 -44 304 -30 443 39 71 36 188 125 254
193 39 41 74 55 57 23z m75 -47 l-18 -28 24 20 c13 11 27 25 31 30 5 6 8 6 8
-1 0 -13 -42 -69 -104 -140 -58 -66 -183 -157 -289 -209 -145 -72 -284 -92
-410 -59 -82 21 -244 104 -303 155 -65 55 -69 69 -7 25 221 -159 491 -179 738
-54 79 41 173 114 260 204 44 46 82 83 84 83 2 1 -5 -11 -14 -26z m137 5 c-8
-8 -8 -15 -1 -24 8 -10 -3 -32 -45 -86 -101 -134 -257 -249 -410 -305 -50 -18
-150 -27 -141 -13 3 5 13 10 21 10 33 0 170 66 257 122 51 34 130 100 181 151
50 50 96 92 101 92 6 1 9 7 7 14 -3 13 25 51 37 51 3 0 0 -5 -7 -12z m67 -92
c-25 -43 -15 -47 19 -8 l23 27 -18 -34 c-18 -34 -218 -231 -234 -231 -5 0 -33
-16 -64 -35 -30 -19 -67 -40 -82 -45 -24 -8 -25 -8 -9 3 120 77 280 224 351
324 36 50 44 50 14 -1z m-1491 -21 c4 0 46 -39 92 -86 184 -187 426 -296 732
-329 138 -14 414 -12 541 5 193 25 463 112 655 209 30 15 56 25 59 23 5 -6
-174 -108 -238 -135 -24 -11 -109 -51 -189 -90 -199 -96 -373 -132 -645 -132
-404 0 -737 116 -957 334 -26 25 -53 57 -59 69 -7 12 -25 38 -40 58 -16 20
-26 39 -23 42 3 3 -1 16 -10 29 -9 12 -16 27 -16 33 0 5 8 -3 19 -20 10 -16
31 -41 47 -55 19 -16 23 -18 13 -5 -9 11 -24 36 -33 55 l-17 35 20 -25 c58
-74 60 -73 14 5 l-24 40 25 -30 c14 -16 29 -30 34 -30z m1604 -27 c-30 -44
-119 -134 -182 -185 -19 -15 -2 8 39 52 41 44 85 97 99 118 27 41 34 46 26 20
-3 -10 4 -6 16 10 33 42 34 32 2 -15z m-1689 -121 c81 -91 225 -210 317 -260
234 -128 463 -179 810 -179 186 0 293 11 417 43 160 42 453 165 610 257 39 23
75 42 80 42 4 0 -39 -28 -96 -63 -56 -34 -119 -72 -140 -85 -38 -24 -123 -65
-208 -102 -29 -12 -53 -27 -53 -32 0 -6 -7 -7 -16 -4 -8 3 -13 2 -9 -3 4 -8
-85 -46 -152 -66 -11 -3 -27 -12 -33 -20 -7 -8 -18 -15 -24 -15 -6 0 -4 5 4
10 9 6 10 10 3 10 -7 0 -16 -6 -20 -14 -4 -7 -51 -24 -103 -36 -78 -19 -131
-24 -302 -28 -179 -4 -225 -1 -345 18 -296 47 -542 163 -729 342 -81 78 -164
171 -136 155 7 -5 12 -3 12 4 0 8 5 8 18 -2 14 -11 15 -11 5 1 -19 21 -16 35
4 19 14 -12 14 -10 -1 14 -21 31 -28 35 -19 10 4 -11 3 -14 -5 -9 -8 5 -10 2
-6 -8 10 -25 -2 -19 -22 12 -15 23 -15 25 -1 13 20 -16 23 -2 5 19 -11 12 -10
12 5 1 21 -17 22 -8 0 27 -13 21 -9 19 15 -8 19 -21 29 -27 25 -16 -4 13 -3
17 5 12 6 -3 -1 15 -15 41 l-25 48 28 -35 c16 -19 60 -70 97 -113z m-188 -74
c285 -328 609 -483 1090 -523 434 -37 768 59 1308 373 81 47 147 84 147 81 0
-7 -180 -121 -330 -210 -119 -70 -243 -136 -320 -168 -14 -6 -45 -25 -70 -41
-53 -36 -190 -97 -310 -137 -83 -27 -84 -28 -34 -24 77 7 258 54 359 93 188
74 477 227 709 377 32 21 56 34 52 28 -25 -40 -364 -252 -565 -352 -107 -53
-294 -131 -344 -144 -24 -6 -27 -9 -16 -22 7 -8 8 -14 3 -13 -5 1 -25 -5 -45
-14 -54 -24 -254 -75 -349 -88 -47 -7 -157 -12 -245 -12 -184 1 -348 28 -520
87 -133 45 -136 46 -128 59 3 6 1 7 -6 3 -13 -8 -56 3 -47 12 3 3 -45 32 -107
65 -147 77 -315 205 -307 234 2 4 -7 13 -19 19 -11 6 -18 14 -14 18 8 8 -57
77 -67 71 -4 -3 -14 3 -21 13 -13 15 -12 16 4 3 22 -17 22 -4 0 23 -10 12 7
-1 37 -29 30 -27 44 -38 31 -23 -14 16 -21 31 -18 35 4 3 -5 22 -19 40 -14 19
-24 37 -20 40 3 3 -7 22 -21 42 -15 20 19 -12 75 -70 255 -267 525 -410 897
-473 124 -22 338 -37 350 -25 5 5 -14 9 -50 9 -322 1 -744 162 -992 377 -58
50 -116 117 -96 111 4 -2 9 2 10 7 1 6 -4 9 -12 9 -8 -1 -24 10 -37 25 l-23
26 28 -24 c33 -30 36 -12 5 32 -12 17 -17 27 -10 23 18 -11 15 2 -9 37 -14 21
-4 14 26 -18 30 -33 39 -39 26 -18 -23 35 -27 48 -9 37 7 -4 8 -3 4 5 -4 6
-11 9 -16 6 -10 -6 -32 29 -24 38 3 3 -2 17 -11 31 -32 48 -7 26 70 -61z
m3681 -29 c-46 -130 -67 -189 -77 -209 -5 -11 -11 -30 -14 -43 -2 -13 -16 -44
-29 -69 -14 -25 -23 -50 -19 -56 4 -6 1 -7 -7 -2 -10 6 -12 4 -7 -8 15 -39
-180 -337 -352 -537 -95 -110 -321 -338 -431 -434 -496 -433 -1229 -927 -1720
-1159 -151 -72 -299 -130 -332 -131 -14 -1 -24 -4 -22 -7 3 -6 -139 -49 -161
-49 -5 0 -1 6 10 13 35 26 -3 27 -81 2 -87 -28 -265 -68 -272 -61 -2 3 15 10
38 16 122 33 438 186 685 333 282 166 880 552 1165 750 545 379 969 749 1236
1078 129 158 327 468 388 607 29 64 30 44 2 -34z m99 -38 c-14 -48 -23 -92
-19 -98 4 -7 3 -8 -4 -4 -8 5 -11 0 -10 -11 3 -35 -2 -54 -12 -48 -6 3 -7 -1
-4 -9 4 -9 1 -16 -6 -16 -7 0 -10 -7 -6 -16 3 -8 2 -13 -3 -10 -14 9 -50 -88
-39 -107 6 -12 3 -31 -11 -63 -12 -25 -18 -50 -15 -55 3 -5 0 -9 -6 -9 -6 0
-8 -11 -6 -24 2 -14 1 -26 -4 -28 -5 -2 -11 -16 -14 -33 -8 -46 -48 -125 -59
-118 -6 3 -7 1 -3 -5 9 -15 -12 -55 -109 -202 -248 -376 -500 -638 -985 -1026
-448 -358 -933 -664 -1350 -852 -267 -120 -552 -208 -640 -198 -31 4 -39 3
-25 -3 13 -7 -19 -9 -95 -9 -83 1 -100 3 -60 7 52 6 49 6 -45 13 -55 5 -143 9
-195 10 l-95 2 115 6 115 6 -130 4 c-117 3 -123 4 -65 11 53 5 46 6 -40 4 -64
-1 -91 0 -70 5 l35 7 -40 3 -40 3 35 8 c25 5 15 7 -35 4 -47 -3 -63 -2 -50 4
16 8 13 10 -20 11 -22 2 -53 6 -70 10 -28 7 -28 8 -5 9 14 1 -42 22 -125 46
-165 48 -225 70 -205 77 7 2 -3 4 -22 4 -40 0 -181 65 -298 138 -72 45 -114
62 -74 30 18 -14 18 -15 -4 -4 -12 6 -20 15 -17 20 7 11 -46 61 -60 56 -5 -2
-9 -9 -7 -15 1 -7 -2 -10 -8 -6 -8 5 -8 11 -1 19 8 9 -3 22 -40 50 -27 20 -53
34 -58 32 -5 -3 -15 2 -22 12 -13 16 -12 16 6 3 11 -8 0 4 -25 26 -35 32 -49
39 -62 32 -18 -10 -19 -9 -22 10 0 5 -49 58 -107 118 -277 282 -494 583 -634
878 -53 113 -138 325 -133 331 3 2 17 -29 33 -68 71 -185 226 -473 341 -634
213 -299 507 -594 766 -766 206 -137 406 -225 655 -289 209 -53 304 -63 557
-56 289 8 444 40 724 153 580 233 1563 893 2081 1399 235 230 480 526 586 710
70 121 198 387 241 502 21 56 40 100 42 98 2 -2 -8 -42 -23 -89z m-5303 -212
c169 -298 471 -616 754 -792 359 -223 727 -321 1217 -323 234 -1 249 -9 53
-28 -617 -61 -1250 181 -1697 646 -221 231 -369 454 -428 647 -28 91 -26 93
12 16 18 -36 58 -110 89 -166z m4168 162 c0 -2 -8 -10 -17 -17 -16 -13 -17
-12 -4 4 13 16 21 21 21 13z m-2832 -244 c179 -176 412 -313 694 -408 190 -64
318 -84 548 -84 122 -1 224 5 295 15 323 48 748 232 1163 503 12 8 22 12 22 9
0 -8 -152 -116 -245 -174 -123 -77 -268 -151 -285 -145 -8 3 -12 1 -7 -3 13
-14 -258 -132 -345 -149 -15 -4 -34 -13 -42 -22 -9 -8 -53 -29 -98 -45 -94
-32 -122 -37 -92 -14 15 11 16 14 3 15 -8 0 -19 -4 -25 -10 -5 -5 -34 -14 -64
-20 -61 -12 -88 -28 -38 -24 20 2 11 -2 -22 -11 -135 -35 -399 -39 -580 -9
-142 24 -374 96 -555 174 -64 27 -126 49 -138 47 -12 -1 -22 4 -22 10 0 7 -22
25 -50 39 -73 38 -145 85 -142 92 1 4 -2 9 -8 12 -5 3 -19 14 -30 25 -18 19
-19 19 -5 1 8 -11 -9 0 -37 23 -29 24 -50 48 -46 54 4 6 1 7 -6 2 -13 -7 -91
60 -91 78 0 5 -8 17 -18 26 -10 9 -40 43 -67 76 -41 50 -30 41 65 -49 263
-248 543 -413 869 -512 234 -71 394 -95 625 -93 190 1 208 14 31 22 -198 9
-270 17 -253 29 9 6 6 7 -9 3 -27 -7 -115 4 -108 14 2 4 -10 6 -28 3 -26 -3
-29 -1 -17 8 12 9 9 10 -13 5 -19 -4 -26 -2 -22 4 4 7 -6 9 -27 5 -27 -5 -30
-3 -18 6 13 10 12 11 -4 6 -22 -7 -149 32 -141 43 2 5 -8 6 -23 4 -22 -4 -24
-2 -12 7 12 10 11 11 -8 7 -13 -3 -21 -3 -18 0 3 4 -31 23 -77 43 -138 62
-298 151 -290 162 3 7 1 8 -5 4 -12 -7 -104 52 -162 104 l-35 32 40 -29 c22
-16 65 -46 95 -67 l55 -38 -45 38 c-92 77 -258 251 -300 314 l-43 65 53 -60
c29 -33 100 -106 158 -163z m33 171 c13 -16 12 -17 -3 -4 -17 13 -22 21 -14
21 2 0 10 -8 17 -17z m3994 -39 c-3 -20 -18 -75 -32 -123 -22 -75 -28 -105
-36 -183 -1 -9 -6 -14 -11 -11 -5 4 -7 -2 -3 -13 7 -18 7 -18 -8 0 -17 22 -20
14 -5 -14 7 -13 5 -31 -5 -61 -9 -23 -12 -51 -9 -62 4 -14 3 -17 -6 -12 -10 6
-12 1 -8 -18 3 -15 1 -24 -3 -21 -5 3 -10 0 -10 -5 -7 -54 -9 -79 -10 -98 -1
-13 -5 -20 -10 -17 -5 3 -6 -2 -2 -11 5 -13 7 -14 14 -3 5 7 6 20 4 28 -2 8
-1 21 4 28 7 11 9 10 14 -3 5 -11 3 -14 -5 -9 -8 5 -9 2 -5 -9 4 -10 1 -29 -5
-43 -11 -23 -13 -24 -24 -10 -11 15 -12 15 -18 1 -3 -9 -2 -14 3 -10 5 3 11
-1 14 -7 5 -16 -34 -99 -44 -92 -4 2 -11 -1 -15 -7 -4 -8 -3 -9 4 -5 17 10 15
1 -8 -45 -12 -22 -25 -37 -30 -34 -6 4 -7 -1 -3 -11 5 -13 3 -15 -7 -9 -9 5
-11 4 -6 -4 9 -14 -43 -110 -127 -236 -319 -479 -717 -867 -1262 -1232 -327
-219 -511 -320 -846 -463 -201 -86 -619 -208 -676 -197 -12 2 -20 0 -17 -4 7
-12 5 -12 -142 11 -71 11 -190 21 -264 22 l-135 2 145 6 145 6 -145 4 -145 4
145 6 145 6 -165 4 -165 4 125 6 125 6 -183 2 c-126 1 -181 5 -177 13 5 7 -13
9 -57 5 -47 -4 -56 -3 -33 4 24 7 19 8 -25 5 -41 -3 -50 -2 -35 6 15 7 9 8
-25 4 -24 -3 -41 -3 -37 1 4 4 -34 18 -84 30 -50 13 -101 26 -113 29 -17 5
-18 4 -6 -4 17 -12 10 -14 -14 -5 -9 3 -13 11 -10 16 4 6 -2 7 -16 3 -17 -5
-21 -4 -15 6 6 9 3 11 -8 6 -10 -3 -17 -2 -17 3 0 6 -10 10 -22 10 -12 0 -50
14 -84 31 -35 17 -69 27 -75 23 -8 -5 -9 -3 -4 6 6 10 4 12 -9 7 -9 -4 -15 -3
-12 2 3 5 -1 12 -10 15 -9 3 -12 2 -8 -5 3 -6 -14 -1 -37 11 -47 24 -65 37
-36 27 12 -4 16 -3 11 4 -3 6 -15 9 -25 6 -10 -3 -22 0 -26 5 -4 7 -1 8 8 3 8
-5 11 -5 8 -2 -3 4 -48 32 -100 63 -52 31 -97 61 -100 67 -4 5 -12 6 -19 2 -8
-5 -11 -4 -7 2 7 12 -16 35 -29 31 -5 -2 -10 1 -11 5 -1 5 -36 34 -76 66 -196
151 -320 272 -471 460 -70 89 -227 304 -240 331 -9 20 20 -17 141 -180 121
-164 379 -433 532 -556 235 -189 459 -314 707 -397 268 -89 514 -120 786 -99
185 14 285 31 451 77 187 51 300 96 542 215 778 384 1696 1098 2102 1635 174
231 306 457 388 665 50 127 105 287 105 305 0 8 3 15 6 15 3 0 3 -16 -1 -36z
m-5998 -61 c-3 -10 -5 -4 -5 12 0 17 2 24 5 18 2 -7 2 -21 0 -30z m4783 23
c-12 -15 -80 -58 -80 -52 0 5 82 66 88 66 3 0 -1 -7 -8 -14z m1081 -53 c-12
-20 -14 -14 -5 12 4 9 9 14 11 11 3 -2 0 -13 -6 -23z m-3568 -210 c89 -53 105
-71 20 -23 -72 40 -180 121 -253 189 -30 29 -8 13 50 -35 58 -47 140 -107 183
-131z m-2286 165 c-3 -7 -5 -2 -5 12 0 14 2 19 5 13 2 -7 2 -19 0 -25z m1665
-206 c391 -318 890 -512 1313 -512 331 1 725 107 1163 315 62 30 110 49 106
44 -3 -5 -74 -43 -157 -84 -178 -87 -486 -202 -642 -238 -361 -86 -691 -75
-1013 32 -85 29 -183 65 -219 81 -71 32 -88 36 -77 18 4 -7 3 -8 -5 -4 -6 4
-9 11 -7 15 3 4 -15 17 -40 29 -25 12 -90 49 -145 83 -55 33 -105 57 -111 53
-6 -4 -8 -3 -5 3 4 6 -44 48 -105 94 -120 90 -206 170 -278 259 -38 47 -31 42
50 -35 52 -50 130 -118 172 -153z m-1685 196 c-3 -7 -5 -2 -5 12 0 14 2 19 5
13 2 -7 2 -19 0 -25z m5867 23 c3 -5 -1 -11 -9 -14 -9 -4 -12 -1 -8 9 6 16 10
17 17 5z m-4350 -307 c129 -101 250 -174 430 -259 112 -54 315 -129 409 -151
15 -3 26 -8 23 -11 -7 -7 -190 42 -292 78 -329 116 -685 357 -854 579 -25 32
-5 17 70 -53 58 -54 154 -137 214 -183z m-1487 234 c-3 -7 -5 -2 -5 12 0 14 2
19 5 13 2 -7 2 -19 0 -25z m160 -80 c-3 -8 -6 -5 -6 6 -1 11 2 17 5 13 3 -3 4
-12 1 -19z m10 -50 c-3 -8 -6 -5 -6 6 -1 11 2 17 5 13 3 -3 4 -12 1 -19z
m2263 -58 c19 -11 31 -19 25 -19 -5 0 -26 8 -45 19 -19 11 -30 19 -25 19 6 0
26 -8 45 -19z m-2353 -112 c-3 -8 -6 -5 -6 6 -1 11 2 17 5 13 3 -3 4 -12 1
-19z m2119 -24 c18 -14 18 -14 -6 -3 -31 14 -36 19 -24 19 6 0 19 -7 30 -16z
m-1616 -24 c6 -11 8 -20 6 -20 -3 0 -10 9 -16 20 -6 11 -8 20 -6 20 3 0 10 -9
16 -20z m1670 0 c8 -5 11 -10 5 -10 -5 0 -17 5 -25 10 -8 5 -10 10 -5 10 6 0
17 -5 25 -10z m333 -115 c83 -24 145 -44 137 -44 -37 -1 -351 95 -377 115 -11
8 4 5 35 -6 29 -11 121 -40 205 -65z m-1923 -7 c212 -306 501 -538 850 -683
119 -50 121 -61 3 -14 -246 97 -457 239 -658 443 -68 69 -176 201 -210 257 -5
9 -16 26 -23 38 -26 44 -3 19 38 -41z m1436 -6 c-5 -4 -106 46 -106 53 0 3 25
-7 55 -22 30 -15 53 -29 51 -31z m-1870 -220 c-5 -4 -56 92 -56 105 0 4 14
-16 30 -46 17 -30 28 -56 26 -59z m2279 68 c13 -6 15 -9 5 -9 -8 0 -22 4 -30
9 -18 12 -2 12 25 0z m-263 -94 c254 -78 520 -104 818 -82 70 5 72 5 30 -6
-73 -18 -417 -15 -546 5 -115 18 -323 73 -384 101 -39 18 -35 17 82 -18z
m1075 -52 c-3 -3 -12 -4 -19 -1 -8 3 -5 6 6 6 11 1 17 -2 13 -5z m-54 -11 c-7
-2 -19 -2 -25 0 -7 3 -2 5 12 5 14 0 19 -2 13 -5z m-66 -9 c-3 -3 -12 -4 -19
-1 -8 3 -5 6 6 6 11 1 17 -2 13 -5z m-2736 -271 c9 -9 7 -11 -5 -9 -9 1 -21 7
-27 13 -9 9 -7 11 5 9 9 -1 21 -7 27 -13z m184 -33 c10 -11 16 -20 13 -20 -3
0 -13 9 -23 20 -10 11 -16 20 -13 20 3 0 13 -9 23 -20z m-147 -25 c4 0 6 -5 4
-12 -2 -11 15 -28 31 -28 4 0 6 -4 5 -10 -6 -19 -27 -12 -55 18 -15 17 -20 25
-10 18 21 -16 23 1 2 19 -8 7 -15 9 -15 6 0 -4 -5 -4 -10 -1 -6 4 -8 11 -4 16
4 6 14 3 26 -8 11 -10 23 -18 26 -18z m1209 -1 c-3 -3 -12 -4 -19 -1 -8 3 -5
6 6 6 11 1 17 -2 13 -5z m63 -14 c20 -6 21 -8 5 -8 -11 0 -29 3 -40 8 -25 11
1 11 35 0z m-965 -38 c-3 -3 3 -15 12 -26 18 -21 18 -21 -5 -2 -12 11 -20 21
-17 24 3 3 -1 12 -8 21 -11 14 -10 14 6 2 9 -8 15 -16 12 -19z m1028 21 c-7
-2 -19 -2 -25 0 -7 3 -2 5 12 5 14 0 19 -2 13 -5z m-1102 -20 c8 -8 8 -13 0
-18 -7 -3 -10 -1 -9 6 2 7 -2 13 -9 14 -6 0 -14 3 -18 7 -4 3 0 5 9 4 9 -1 21
-7 27 -13z m1317 -13 l67 -9 -76 4 c-42 3 -87 9 -100 15 -21 9 -20 9 9 4 18
-3 63 -10 100 -14z m-1217 -97 c13 -16 12 -17 -3 -4 -17 13 -22 21 -14 21 2 0
10 -8 17 -17z m123 -45 c21 -15 34 -28 27 -28 -7 0 -9 -4 -6 -10 4 -6 -1 -7
-11 -3 -13 5 -15 3 -9 -8 5 -8 5 -11 -1 -6 -5 5 -10 13 -10 18 -1 5 -3 11 -4
14 -1 3 -3 10 -4 17 0 6 -7 13 -15 16 -9 3 -11 0 -6 -9 5 -8 4 -11 -1 -6 -5 5
-9 12 -9 15 0 4 -4 13 -9 21 -11 17 -1 11 58 -31z m-198 -77 c-7 -10 18 -33
27 -26 4 3 5 2 2 -2 -3 -3 1 -13 7 -22 7 -9 -2 -3 -20 13 -27 25 -34 46 -16
46 3 0 3 -4 0 -9z m380 -57 c1 -9 0 -13 -4 -10 -3 4 -7 14 -8 22 -1 9 0 13 4
10 3 -4 7 -14 8 -22z m123 -70 c14 -12 -19 -1 -35 12 -18 14 -18 14 6 3 14 -6
27 -13 29 -15z m51 -19 c14 -8 21 -14 15 -14 -5 0 -21 6 -35 14 -14 8 -20 14
-15 14 6 0 21 -6 35 -14z m0 -25 c8 -5 11 -10 5 -10 -5 0 -17 5 -25 10 -8 5
-10 10 -5 10 6 0 17 -5 25 -10z m95 -36 c24 -11 25 -13 5 -8 -14 4 -38 13 -55
20 -24 11 -25 13 -5 8 14 -4 39 -13 55 -20z m-375 -49 c0 -2 -7 -1 -17 2 -12
5 -14 3 -8 -8 5 -8 4 -11 0 -6 -5 4 -10 14 -11 22 -2 12 2 12 17 5 10 -6 19
-13 19 -15z m4370 5 c-24 -46 -215 -272 -299 -354 -49 -49 -88 -93 -86 -96 3
-4 -5 -16 -17 -26 -12 -11 -18 -13 -13 -5 5 9 3 12 -6 9 -8 -3 -14 -11 -14
-19 -1 -8 -7 -13 -14 -11 -7 1 -10 -2 -7 -7 8 -13 -251 -221 -275 -221 -4 0
-46 -27 -95 -60 -48 -33 -107 -69 -131 -81 -25 -12 -40 -25 -36 -31 3 -6 1 -8
-4 -5 -6 4 -68 -25 -139 -65 -139 -77 -314 -162 -354 -172 l-25 -6 25 12 c359
171 612 327 917 568 126 99 396 366 503 498 41 50 76 92 78 92 1 0 -2 -9 -8
-20z m-4299 -1 c19 -10 18 -29 -2 -29 -6 0 -8 4 -4 9 3 6 -3 14 -12 20 -24 14
-7 14 18 0z m436 -15 c-3 -3 -12 -4 -19 -1 -8 3 -5 6 6 6 11 1 17 -2 13 -5z
m50 -10 c-3 -3 -12 -4 -19 -1 -8 3 -5 6 6 6 11 1 17 -2 13 -5z m3531 -165
c-71 -81 -153 -164 -274 -277 -95 -89 -204 -175 -175 -139 18 23 -1 22 -22 -1
-10 -10 -14 -22 -10 -27 5 -4 2 -5 -4 -1 -16 9 -40 -4 -24 -13 6 -4 2 -12 -12
-20 -20 -13 -21 -13 -8 2 15 19 1 23 -17 5 -7 -7 -12 -8 -12 -2 0 6 30 32 68
60 116 85 294 237 418 357 65 64 120 116 122 117 2 0 -21 -27 -50 -61z m225
-26 c-15 -21 -34 -42 -41 -46 -7 -5 -10 -12 -7 -17 3 -5 -19 -30 -49 -56 -30
-26 -54 -50 -53 -54 3 -9 -129 -129 -253 -231 -158 -130 -516 -373 -697 -473
-94 -53 -271 -131 -279 -124 -1 2 32 19 74 38 236 104 654 373 897 574 92 77
266 247 362 354 72 79 89 92 46 35z m-3756 -59 c-3 -3 -12 -4 -19 -1 -8 3 -5
6 6 6 11 1 17 -2 13 -5z m-720 -59 c0 -11 -4 -12 -14 -3 -7 6 -11 13 -8 16 3
3 -3 15 -12 26 -15 18 -14 18 8 -2 14 -12 26 -29 26 -37z m841 18 c-10 -2 -26
-2 -35 0 -10 3 -2 5 17 5 19 0 27 -2 18 -5z m-727 -110 c13 -16 12 -17 -3 -4
-17 13 -22 21 -14 21 2 0 10 -8 17 -17z m89 -59 c0 -2 -9 0 -20 6 -11 6 -20
13 -20 16 0 2 9 0 20 -6 11 -6 20 -13 20 -16z m168 -99 c67 -41 83 -56 30 -29
-42 22 -138 85 -138 92 0 2 10 -2 23 -10 12 -8 50 -32 85 -53z m617 -26 c5 -7
-5 -8 -32 -3 -51 9 -54 14 -10 14 20 0 39 -5 42 -11z m772 -45 c-3 -3 -12 -4
-19 -1 -8 3 -5 6 6 6 11 1 17 -2 13 -5z m1883 -39 c-16 -20 -6 -19 25 1 14 9
25 14 25 11 0 -3 -46 -36 -102 -74 -114 -77 -128 -86 -128 -80 0 2 32 25 70
51 69 47 87 64 53 52 -22 -9 -14 0 29 30 39 27 45 29 28 9z m-2925 -37 c13 -5
9 -6 -15 -2 -19 4 -42 10 -50 15 -18 11 34 1 65 -13z m145 -42 c41 -13 71 -24
65 -25 -5 0 -44 10 -85 23 -41 13 -70 24 -65 25 6 0 44 -10 85 -23z m207 -82
c-3 -3 -12 -4 -19 -1 -8 3 -5 6 6 6 11 1 17 -2 13 -5z m376 -61 c-13 -2 -35
-2 -50 0 -16 2 -5 4 22 4 28 0 40 -2 28 -4z m-583 -93 c8 -5 11 -10 5 -10 -5
0 -17 5 -25 10 -8 5 -10 10 -5 10 6 0 17 -5 25 -10z m723 -147 c-34 -2 -93 -2
-130 0 -37 2 -9 3 62 3 72 0 102 -1 68 -3z m202 -17 c93 -18 53 -19 -55 -2
-47 8 -69 14 -50 14 19 1 67 -5 105 -12z m-168 -2 c-3 -3 -12 -4 -19 -1 -8 3
-5 6 6 6 11 1 17 -2 13 -5z m146 -21 c-13 -2 -35 -2 -50 0 -16 2 -5 4 22 4 28
0 40 -2 28 -4z m-120 -10 c-7 -2 -19 -2 -25 0 -7 3 -2 5 12 5 14 0 19 -2 13
-5z m1427 -23 c-8 -5 -19 -10 -25 -10 -5 0 -3 5 5 10 8 5 20 10 25 10 6 0 3
-5 -5 -10z"/>
<path d="M7230 8156 c0 -3 9 -10 20 -16 11 -6 20 -8 20 -6 0 3 -9 10 -20 16
-11 6 -20 8 -20 6z"/>
<path d="M2281 5464 c0 -11 3 -14 6 -6 3 7 2 16 -1 19 -3 4 -6 -2 -5 -13z"/>
<path d="M2333 5240 c0 -25 2 -35 4 -22 2 12 2 32 0 45 -2 12 -4 2 -4 -23z"/>
<path d="M2324 5055 c0 -60 1 -84 3 -52 2 32 2 81 0 110 -2 29 -3 3 -3 -58z"/>
<path d="M3259 2807 c8 -10 33 -32 55 -50 23 -17 35 -24 27 -14 -7 9 -10 17
-5 17 4 0 2 6 -4 12 -7 7 -20 13 -30 13 -10 0 -16 6 -14 15 2 8 0 12 -4 8 -4
-4 -14 -2 -23 5 -14 11 -14 10 -2 -6z"/>
<path d="M3400 2716 c0 -2 8 -10 18 -17 15 -13 16 -12 3 4 -13 16 -21 21 -21
13z"/>
<path d="M3657 2528 c2 -5 46 -29 96 -55 63 -32 106 -47 136 -48 l44 -2 -63
28 c-70 32 -74 33 -65 19 10 -16 -1 -12 -66 20 -33 17 -58 34 -55 38 2 4 -4 8
-14 8 -10 0 -16 -4 -13 -8z m203 -83 c33 -19 21 -19 -21 0 -19 8 -27 14 -19
14 8 0 26 -6 40 -14z"/>
<path d="M4118 2353 c7 -3 16 -2 19 1 4 3 -2 6 -13 5 -11 0 -14 -3 -6 -6z"/>
<path d="M4008 2343 c7 -3 16 -2 19 1 4 3 -2 6 -13 5 -11 0 -14 -3 -6 -6z"/>
<path d="M4118 2333 c7 -3 16 -2 19 1 4 3 -2 6 -13 5 -11 0 -14 -3 -6 -6z"/>
<path d="M4198 2293 c7 -3 16 -2 19 1 4 3 -2 6 -13 5 -11 0 -14 -3 -6 -6z"/>
<path d="M4283 2253 c9 -2 25 -2 35 0 9 3 1 5 -18 5 -19 0 -27 -2 -17 -5z"/>
<path d="M2472 4720 c0 -19 3 -57 8 -85 6 -40 7 -43 8 -15 0 19 -3 58 -8 85
-6 40 -7 43 -8 15z"/>
<path d="M7904 4668 l-19 -23 23 19 c12 11 22 21 22 23 0 8 -8 2 -26 -19z"/>
<path d="M2531 4324 c0 -11 3 -14 6 -6 3 7 2 16 -1 19 -3 4 -6 -2 -5 -13z"/>
<path d="M3070 3235 c13 -14 26 -25 28 -25 3 0 -5 11 -18 25 -13 14 -26 25
-28 25 -3 0 5 -11 18 -25z"/>
<path d="M3140 3166 c0 -2 8 -10 18 -17 15 -13 16 -12 3 4 -13 16 -21 21 -21
13z"/>
<path d="M3615 2780 c-8 -13 20 -24 36 -15 8 6 7 10 -2 16 -18 11 -26 11 -34
-1z"/>
<path d="M3647 2756 l-28 -12 40 -19 c30 -13 44 -15 54 -7 10 9 23 6 51 -9 29
-15 41 -18 50 -9 8 8 6 9 -8 4 -15 -6 -17 -4 -11 6 5 8 4 11 -3 6 -6 -3 -27 3
-47 15 -22 13 -35 17 -33 9 2 -7 -3 -15 -11 -18 -8 -3 -11 0 -7 7 4 7 1 9 -8
5 -11 -4 -14 0 -11 15 2 12 3 21 2 20 -1 0 -15 -6 -30 -13z"/>
<path d="M3840 2690 c8 -5 20 -10 25 -10 6 0 3 5 -5 10 -8 5 -19 10 -25 10 -5
0 -3 -5 5 -10z"/>
<path d="M3998 2613 c7 -3 16 -2 19 1 4 3 -2 6 -13 5 -11 0 -14 -3 -6 -6z"/>
<path d="M4098 2573 c7 -3 16 -2 19 1 4 3 -2 6 -13 5 -11 0 -14 -3 -6 -6z"/>
<path d="M7553 7622 c4 -6 22 -21 39 -34 17 -12 28 -17 25 -10 -4 6 -22 21
-39 34 -17 12 -28 17 -25 10z"/>
<path d="M2741 4377 c-2 -36 42 -213 76 -310 107 -310 341 -617 622 -818 164
-117 334 -195 539 -247 101 -25 119 -27 322 -26 118 1 229 6 245 11 23 8 -1
11 -111 11 -233 2 -412 31 -590 97 -508 189 -909 638 -1074 1203 -16 53 -29
89 -29 79z"/>
<path d="M2900 3695 c0 -5 9 -21 20 -35 11 -14 20 -20 20 -15 0 6 -9 21 -20
35 -11 14 -20 21 -20 15z"/>
<path d="M3026 3561 c-4 -6 10 -28 30 -51 20 -22 32 -40 27 -40 -5 0 -14 5
-21 12 -7 7 -12 8 -12 2 0 -6 9 -19 20 -29 11 -10 20 -14 20 -10 0 4 9 0 20
-10 12 -11 28 -20 36 -21 22 -3 45 -25 38 -35 -3 -5 -11 -6 -17 -2 -7 4 -6 -1
2 -10 8 -10 16 -15 19 -12 3 3 19 -7 36 -22 17 -16 24 -20 17 -10 -7 9 -10 17
-5 17 4 0 -5 14 -21 30 -16 17 -25 30 -20 30 5 0 -11 20 -35 45 -24 24 -47 42
-51 39 -11 -7 -49 28 -43 38 3 5 13 3 22 -4 15 -12 16 -11 3 5 -11 14 -16 15
-29 5 -13 -11 -15 -10 -9 4 7 19 -17 45 -27 29z m129 -122 c22 -23 31 -36 20
-29 -19 12 -71 70 -63 70 2 0 22 -19 43 -41z m-34 4 l24 -28 -26 23 c-14 12
-29 19 -34 15 -4 -5 -5 -2 -1 5 9 16 9 16 37 -15z m95 -85 c19 -23 19 -23 -2
-5 -11 9 -24 14 -29 10 -4 -5 -5 -2 -1 5 9 16 10 16 32 -10z"/>
<path d="M3494 3132 c2 -9 -2 -21 -8 -25 -7 -6 -6 -7 4 -4 8 2 14 10 12 17 -2
8 3 10 13 7 21 -9 19 0 -4 13 -16 8 -19 7 -17 -8z"/>
<path d="M3560 3106 c0 -3 9 -10 20 -16 11 -6 20 -8 20 -6 0 3 -9 10 -20 16
-11 6 -20 8 -20 6z"/>
<path d="M3770 2970 c8 -5 20 -10 25 -10 6 0 3 5 -5 10 -8 5 -19 10 -25 10 -5
0 -3 -5 5 -10z"/>
<path d="M3810 2956 c0 -2 7 -7 16 -10 8 -3 12 -2 9 4 -6 10 -25 14 -25 6z"/>
<path d="M4015 2840 c11 -5 29 -8 40 -8 16 0 15 2 -5 8 -34 11 -60 11 -35 0z"/>
<path d="M6950 7445 c0 -7 61 -37 66 -33 2 3 -12 12 -31 21 -19 9 -35 15 -35
12z"/>
<path d="M7960 6356 c0 -2 8 -10 18 -17 15 -13 16 -12 3 4 -13 16 -21 21 -21
13z"/>
<path d="M5618 7173 c7 -3 16 -2 19 1 4 3 -2 6 -13 5 -11 0 -14 -3 -6 -6z"/>
<path d="M6228 7163 c6 -2 18 -2 25 0 6 3 1 5 -13 5 -14 0 -19 -2 -12 -5z"/>
<path d="M6298 7153 c7 -3 16 -2 19 1 4 3 -2 6 -13 5 -11 0 -14 -3 -6 -6z"/>
<path d="M6348 7143 c7 -3 16 -2 19 1 4 3 -2 6 -13 5 -11 0 -14 -3 -6 -6z"/>
<path d="M4925 7010 c-3 -6 1 -7 9 -4 18 7 21 14 7 14 -6 0 -13 -4 -16 -10z"/>
<path d="M4304 6584 c-18 -14 -18 -15 4 -4 12 6 22 13 22 15 0 8 -5 6 -26 -11z"/>
<path d="M4114 6469 c-59 -41 -94 -71 -64 -53 18 10 111 74 125 86 24 21 -8 4
-61 -33z"/>
<path d="M4127 6349 c-52 -34 -76 -62 -31 -35 34 21 92 66 83 66 -3 0 -27 -14
-52 -31z"/>
<path d="M4000 6249 c0 -5 5 -7 10 -4 6 3 10 8 10 11 0 2 -4 4 -10 4 -5 0 -10
-5 -10 -11z"/>
<path d="M3920 6185 c-11 -13 -10 -14 4 -9 9 3 16 10 16 15 0 13 -6 11 -20 -6z"/>
<path d="M5888 6633 c6 -2 18 -2 25 0 6 3 1 5 -13 5 -14 0 -19 -2 -12 -5z"/>
<path d="M3725 5360 c-3 -6 1 -7 9 -4 18 7 21 14 7 14 -6 0 -13 -4 -16 -10z"/>
<path d="M6039 5213 c-13 -16 -12 -17 4 -4 9 7 17 15 17 17 0 8 -8 3 -21 -13z"/>
<path d="M6440 5068 c-15 -21 -17 -28 -6 -19 16 13 41 51 33 51 -2 0 -14 -15
-27 -32z"/>
<path d="M4714 4917 c16 -20 30 -37 33 -37 7 0 -36 58 -49 66 -7 4 1 -9 16
-29z"/>
<path d="M4579 4833 c5 -10 24 -31 42 -48 30 -28 29 -26 -6 18 -41 50 -52 58
-36 30z"/>
<path d="M8265 4479 c-4 -6 -5 -12 -2 -15 2 -3 7 2 10 11 7 17 1 20 -8 4z"/>
<path d="M8236 4415 c-9 -26 -7 -32 5 -12 6 10 9 21 6 23 -2 3 -7 -2 -11 -11z"/>
<path d="M4348 2023 c6 -2 18 -2 25 0 6 3 1 5 -13 5 -14 0 -19 -2 -12 -5z"/>
<path d="M4698 1963 c7 -3 16 -2 19 1 4 3 -2 6 -13 5 -11 0 -14 -3 -6 -6z"/>
<path d="M4863 1933 c15 -2 37 -2 50 0 12 2 0 4 -28 4 -27 0 -38 -2 -22 -4z"/>
<path d="M4978 1913 c7 -3 16 -2 19 1 4 3 -2 6 -13 5 -11 0 -14 -3 -6 -6z"/>
<path d="M4190 4526 c0 -2 8 -10 18 -17 15 -13 16 -12 3 4 -13 16 -21 21 -21
13z"/>
<path d="M4424 4331 c7 -11 46 -35 46 -28 0 3 -12 12 -26 22 -15 9 -23 12 -20
6z"/>
<path d="M6088 4053 c7 -3 16 -2 19 1 4 3 -2 6 -13 5 -11 0 -14 -3 -6 -6z"/>
<path d="M8266 3979 c3 -5 0 -18 -6 -29 -6 -11 -8 -20 -6 -20 3 0 12 13 20 28
13 24 13 29 1 29 -8 0 -12 -4 -9 -8z"/>
<path d="M5038 1713 c12 -2 30 -2 40 0 9 3 -1 5 -23 4 -22 0 -30 -2 -17 -4z"/>
<path d="M5038 1693 c12 -2 30 -2 40 0 9 3 -1 5 -23 4 -22 0 -30 -2 -17 -4z"/>
<path d="M5113 1683 c9 -2 23 -2 30 0 6 3 -1 5 -18 5 -16 0 -22 -2 -12 -5z"/>
<path d="M5248 1683 c7 -3 16 -2 19 1 4 3 -2 6 -13 5 -11 0 -14 -3 -6 -6z"/>
<path d="M5173 1673 c9 -2 23 -2 30 0 6 3 -1 5 -18 5 -16 0 -22 -2 -12 -5z"/>
<path d="M2970 3336 c0 -2 8 -10 18 -17 15 -13 16 -12 3 4 -13 16 -21 21 -21
13z"/>
<path d="M3425 3140 c3 -5 11 -10 16 -10 6 0 7 5 4 10 -3 6 -11 10 -16 10 -6
0 -7 -4 -4 -10z"/>
<path d="M7289 2343 l-24 -28 28 24 c15 14 27 26 27 28 0 8 -8 1 -31 -24z"/>
<path d="M7207 2283 c-26 -19 -46 -38 -43 -40 4 -4 17 5 75 54 41 35 21 26
-32 -14z"/>
<path d="M6955 2110 c-3 -5 -2 -10 4 -10 5 0 13 5 16 10 3 6 2 10 -4 10 -5 0
-13 -4 -16 -10z"/>
<path d="M2425 6479 c-4 -6 -5 -12 -2 -15 2 -3 7 2 10 11 7 17 1 20 -8 4z"/>
<path d="M2360 6470 c0 -3 8 -27 18 -53 l18 -48 12 38 c6 20 9 39 7 42 -3 2
-5 -2 -5 -10 0 -11 -2 -11 -10 1 -9 13 -10 13 -10 0 -1 -9 -6 -5 -15 10 -8 14
-14 23 -15 20z m37 -62 c-3 -8 -6 -5 -6 6 -1 11 2 17 5 13 3 -3 4 -12 1 -19z"/>
</g>
</svg>
